<svg width="141" height="141" viewBox="0 0 141 141" fill="none" xmlns="http://www.w3.org/2000/svg">
<g opacity="0.2" clip-path="url(#clip0_647_8633)">
<path d="M68.9158 116.415C73.9313 116.415 78.4359 114.277 81.6015 110.872L131.058 70.7113C135.335 65.8067 137.934 59.3926 137.934 52.3734C137.934 36.9575 125.435 24.4585 110.02 24.4585C99.7555 24.4585 90.7845 30.0065 85.9355 38.259L76.3582 53.9434L58.8211 51.9338L59.0252 51.4785C60.0186 48.613 60.5638 45.529 60.5638 42.3252C60.5638 26.9092 48.065 14.4103 32.649 14.4103C17.5985 14.4103 5.33848 26.3317 4.76545 41.2421L3.61935 90.9663C3.55349 91.5801 3.52514 92.2033 3.52514 92.8346C3.52514 93.2086 3.53294 93.5811 3.55669 93.9493L3.54119 94.75L3.61962 94.7657C4.57821 103.434 11.9347 110.183 20.8586 110.183C27.7836 110.183 33.749 106.114 36.5276 100.245H36.5588L42.4307 87.5121L53.9074 90.4637C53.5406 91.1147 53.1948 91.7733 52.8869 92.4577C52.0425 94.4986 51.5838 96.7373 51.5838 99.083C51.5838 108.659 59.3413 116.416 68.9166 116.416L68.9158 116.415ZM73.7672 112.191L103.77 80.0373L116.33 78.8912L77.7081 110.763L73.7672 112.191ZM29.9154 105.079L38.8803 68.8428L48.9283 64.1798L32.4272 102.928L29.9154 105.079ZM110.017 74.714C97.6839 74.714 87.6753 64.7054 87.6753 52.3726C87.6753 40.0398 97.6839 30.0471 110.017 30.0471C122.349 30.0471 132.342 40.0398 132.342 52.3726C132.342 64.7054 122.349 74.714 110.017 74.714ZM32.6445 64.666C20.3117 64.666 10.3031 54.6574 10.3031 42.3246C10.3031 29.9918 20.3117 19.9991 32.6445 19.9991C44.9772 19.9991 54.97 29.9922 54.97 42.3246C54.97 54.6574 44.9772 64.666 32.6445 64.666ZM95.7581 62.7663C97.739 49.335 105.701 39.1932 115.744 38.6823C118.423 38.546 121.045 39.091 123.485 40.2366C120.01 36.0516 114.671 33.5017 108.821 33.7997C98.9672 34.3012 91.3786 42.6923 91.8802 52.5458C92.0776 56.4249 93.5067 59.9464 95.7581 62.7668L95.7581 62.7663ZM18.3859 52.7183C20.3668 39.287 28.3283 29.1452 38.3722 28.6343C41.051 28.4979 43.6728 29.0429 46.1123 30.1886C42.6374 26.0036 37.2989 23.4537 31.4485 23.7513C21.595 24.2528 14.0064 32.644 14.508 42.4974C14.7054 46.3765 16.1346 49.8978 18.3859 52.7183Z" fill="black"/>
</g>
<defs>
<clipPath id="clip0_647_8633">
<rect width="140" height="140" fill="white" transform="matrix(-1 0 0 -1 140.954 140.053)"/>
</clipPath>
</defs>
</svg>
