<svg width="250" height="73" viewBox="0 0 250 73" fill="none" xmlns="http://www.w3.org/2000/svg">
<path fill-rule="evenodd" clip-rule="evenodd" d="M85.6284 33.6789V2.7344H96.7096C99.0595 2.7344 100.572 3.24715 101.914 3.75989C104.937 5.29814 106.279 8.20515 106.279 10.7689C106.279 13.6759 105.104 15.7269 102.752 17.2652C106.279 18.1197 108.294 20.514 108.294 24.2742C108.294 28.5485 105.775 31.625 101.577 32.9938C100.067 33.5065 98.3881 33.6774 95.8689 33.6774L85.6284 33.6789ZM99.2274 8.03424C98.3881 7.69241 97.5489 7.52149 96.3725 7.52149H90.664V15.556H96.0367C97.5474 15.556 98.556 15.3851 99.3952 14.8723C99.9621 14.5506 100.433 14.0788 100.758 13.5069C101.083 12.935 101.25 12.2842 101.242 11.6235C101.242 10.0867 100.402 8.7179 99.2274 8.03424ZM100.739 20.8558C100.068 20.514 99.0595 20.3431 97.381 20.3431H90.6654V28.8903H96.8774C98.8917 28.8903 99.9002 28.5485 100.739 28.2067C102.25 27.523 102.922 26.1542 102.922 24.4451C102.922 22.7359 102.25 21.541 100.739 20.8558ZM138.515 33.6789V2.7344H143.722V33.6789H138.515ZM176.292 33.6789V2.7344H181.499V33.6789H176.292ZM198.12 2.56348C201.476 2.56348 204.836 3.41806 206.684 4.27408L206.515 9.40301C203.827 8.03569 201.311 7.17966 198.122 7.17966C195.265 7.17966 192.749 8.03424 192.749 10.4285C192.749 16.7539 208.364 14.1887 208.364 24.6174C208.364 30.43 203.662 34.0207 196.611 34.0207C191.91 34.0207 188.718 32.6534 186.368 31.2846L188.551 27.0103C190.399 28.2067 193.422 29.4031 196.778 29.4031C199.967 29.4031 202.823 28.2067 202.823 25.472C202.823 18.8034 187.376 21.7104 187.376 11.2816C187.375 5.64142 191.739 2.56348 198.12 2.56348ZM232.875 33.6789V20.3445H218.266V33.6789H213.062V2.7344H218.266V15.3865H232.875V2.7344H238.078V33.6789H232.875ZM97.0453 38.9787C100.235 38.9787 102.754 39.6624 105.439 40.8588L103.929 45.3041C102.418 44.619 100.402 43.7658 97.5489 43.7658C91.8404 43.7658 88.314 48.7238 88.314 54.7073C88.314 60.8632 91.6725 65.8198 97.5489 65.8198C100.402 65.8198 102.418 64.9652 103.929 64.2815L105.439 68.7254C102.752 69.9218 100.235 70.6069 97.0453 70.6069C87.9783 70.6069 82.7734 64.1106 82.7734 54.8783C82.7734 46.1586 87.9783 38.9787 97.0453 38.9787ZM210.546 38.9787C213.902 38.9787 216.422 39.6624 218.939 40.8588L217.428 45.3041C215.917 44.619 213.902 43.7658 211.049 43.7658C205.34 43.7658 201.815 48.7238 201.815 54.7073C201.815 60.8632 205.173 65.8198 211.049 65.8198C213.903 65.8198 215.917 64.9652 217.428 64.2815L218.939 68.7254C216.421 69.9218 213.902 70.6069 210.546 70.6069C201.478 70.6069 196.274 64.1106 196.274 54.8783C196.273 46.1586 201.478 38.9787 210.546 38.9787ZM134.989 54.7059C134.989 63.9383 129.282 70.6069 120.718 70.6069C112.155 70.6069 106.447 64.1106 106.447 54.8783C106.447 45.6459 112.156 38.9787 120.718 38.9787C129.45 38.9787 134.989 45.475 134.989 54.7059ZM129.616 54.7059C129.616 48.0387 125.757 43.7644 120.718 43.7644C115.681 43.7644 111.821 48.0387 111.821 54.8768C111.821 61.5454 115.683 65.8183 120.718 65.8183C125.757 65.8183 129.616 61.5454 129.616 54.7059ZM138.515 58.4675V39.3206H143.722V58.6384C143.722 63.9383 146.409 65.8183 150.773 65.8183C155.137 65.8183 157.824 63.9383 157.824 58.6384V39.3206H163.028V58.4675C163.028 66.8453 158.326 70.6069 150.773 70.6069C143.217 70.6069 138.515 66.8453 138.515 58.4675ZM172.766 47.6969H172.599C172.766 48.7224 172.766 50.433 172.766 51.8003V70.0927H167.562V39.3206H173.272L187.206 60.349H187.375C187.206 59.3235 187.206 57.6129 187.206 56.2456V39.3206H192.412V70.0927H187.877L172.766 47.6969ZM222.97 70.0927V39.3206H228.173V70.0927H222.97ZM232.875 70.0927V39.3206H238.078V65.307H250V70.0927H232.875ZM172.264 2.90676H147.75V7.69241H157.488V33.6789H162.695V7.69241H172.264V2.90676ZM129.283 33.6789C124.916 24.2756 123.741 21.7119 121.895 21.7119H117.026V33.6789H111.821V2.90676H122.063C129.953 2.90676 132.81 7.0102 132.81 11.6249C132.81 15.8993 130.626 18.6339 127.268 19.6594C128.612 20.514 130.124 23.421 135.161 33.6789H129.283ZM122.397 7.52149H117.024V16.9248H122.229C125.923 16.9248 127.6 15.0447 127.6 12.1377C127.602 9.57393 126.091 7.52149 122.397 7.52149Z" fill="#164C82"/>
<path fill-rule="evenodd" clip-rule="evenodd" d="M34.7543 17.6087C34.7543 27.3538 26.8637 35.2174 17.2932 35.2174C7.89056 35.2174 0 27.3524 0 17.6087C0 7.86505 7.89056 1.72663e-05 17.2932 1.72663e-05C26.8637 1.72663e-05 34.7543 7.8636 34.7543 17.6087ZM71.6921 17.6087C71.6953 19.922 71.2502 22.2132 70.3823 24.3511C69.5143 26.4889 68.2406 28.4314 66.6342 30.0672C65.0277 31.7029 63.1201 32.9998 61.0205 33.8836C58.921 34.7674 56.6708 35.2206 54.3989 35.2174C44.8284 35.2174 37.1057 27.3524 37.1057 17.6087C37.1057 7.86505 44.8298 1.72663e-05 54.3989 1.72663e-05C56.6708 -0.00322441 58.921 0.450024 61.0205 1.3338C63.1201 2.21757 65.0277 3.51449 66.6342 5.15025C68.2406 6.78602 69.5143 8.72847 70.3823 10.8663C71.2502 13.0042 71.6953 15.2954 71.6921 17.6087ZM34.7543 55.3913C34.7543 65.1364 26.8637 73 17.2932 73C7.89056 73 0 65.1349 0 55.3913C0 45.6447 7.89056 37.7826 17.2932 37.7826C26.8637 37.7826 34.7543 45.6447 34.7543 55.3913ZM71.6921 55.3913C71.6953 57.7046 71.2502 59.9958 70.3823 62.1337C69.5143 64.2715 68.2406 66.214 66.6342 67.8497C65.0277 69.4855 63.1201 70.7824 61.0205 71.6662C58.921 72.55 56.6708 73.0032 54.3989 73C52.127 73.0032 49.8769 72.55 47.7773 71.6662C45.6778 70.7824 43.7701 69.4855 42.1637 67.8497C40.5572 66.214 39.2835 64.2715 38.4156 62.1337C37.5476 59.9958 37.1025 57.7046 37.1057 55.3913C37.1025 53.078 37.5476 50.7867 38.4156 48.6489C39.2835 46.511 40.5572 44.5686 42.1637 42.9328C43.7701 41.2971 45.6778 40.0001 47.7773 39.1164C49.8769 38.2326 52.127 37.7793 54.3989 37.7826C56.6708 37.7792 58.9211 38.2323 61.0207 39.116C63.1204 39.9997 65.0281 41.2966 66.6346 42.9324C68.2411 44.5682 69.5148 46.5107 70.3826 48.6487C71.2505 50.7866 71.6955 53.0779 71.6921 55.3913Z" fill="#00A0E2"/>
</svg>
