<svg width="81" height="74" viewBox="0 0 81 74" fill="none" xmlns="http://www.w3.org/2000/svg">
<path fill-rule="evenodd" clip-rule="evenodd" d="M53.9204 10.952C53.2274 11.5219 52.2041 11.4313 51.6276 10.7318C51.0512 10.0323 51.1484 9.01546 51.8478 8.43903L61.6082 0.375561C62.3012 -0.194387 63.3245 -0.103714 63.901 0.589292C64.4709 1.2823 64.3802 2.30561 63.6807 2.88204L53.9204 10.952ZM6.50458 39.3652C5.42945 39.6826 4.63929 40.382 4.11468 41.3082C3.51235 42.3769 3.24033 43.7564 3.25976 45.2331C3.26624 45.8678 3.331 46.5219 3.44111 47.1826C3.55121 47.8497 3.7196 48.5168 3.92686 49.1709C4.14059 49.8315 4.39966 50.4727 4.70406 51.088C5.00199 51.6839 5.33877 52.2538 5.70795 52.7719C6.61468 54.0349 7.74162 55.0388 9.04344 55.544C10.1769 55.9909 11.4528 56.0556 12.8258 55.5828L12.8517 55.5763C13.0072 55.5245 13.1626 55.5051 13.318 55.5181C13.4282 55.5245 13.5383 55.544 13.6484 55.5763L13.6807 55.5634C14.0499 55.4403 14.432 55.3238 14.8077 55.2072L15.8375 54.8898C16.2131 54.7797 16.5693 54.6761 16.9061 54.5789C17.2364 54.4818 17.5732 54.3911 17.9165 54.3004C18.2727 54.2033 18.6289 54.2616 18.9269 54.43L18.9592 54.4494C19.2377 54.6178 19.4515 54.8898 19.5486 55.2331C19.5681 55.2914 19.5745 55.3367 19.581 55.3885C19.6717 55.7966 19.7818 56.2175 19.8595 56.6256C20.5655 59.7862 21.252 62.8302 22.1652 65.2979C22.2429 65.544 22.3401 65.7836 22.4307 66.0297C22.7092 66.8069 23.0007 67.61 23.3245 68.3419C23.6354 69.0543 23.9657 69.689 24.3414 70.1554V70.1618C24.6199 70.5116 24.9437 70.7318 25.3258 70.7512C25.7468 70.7706 26.2714 70.5699 26.932 70.0582C27.217 69.7927 27.4761 69.566 27.7416 69.3393L27.7999 69.2875C28.5771 68.6139 29.3543 67.9468 29.6911 67.0336C29.6393 66.9947 29.581 66.9559 29.5162 66.9235C29.3673 66.8393 29.1794 66.7551 28.9916 66.6774L28.9722 66.6709C28.2792 66.3795 27.5927 66.0815 27.094 65.4598C26.5888 64.8315 26.3168 63.9183 26.5046 62.4287C26.5111 62.338 26.524 62.2603 26.537 62.1826C26.5499 62.0919 26.5629 62.0012 26.5693 61.9105C26.6535 61.237 26.6989 60.8872 26.673 60.7901V60.7771C26.6535 60.7512 26.5175 60.6541 26.2455 60.4015C26.1678 60.3302 26.0836 60.259 26.0124 60.1813C25.6108 59.8056 25.3258 59.3587 25.1445 58.8665C24.9437 58.3225 24.866 57.7266 24.8725 57.1048C24.8789 56.496 24.9696 55.8613 25.1056 55.259C25.274 54.5271 25.5136 53.8276 25.7533 53.2512L25.7662 53.2318C25.8569 53.0181 25.9994 52.8432 26.1678 52.7136C26.3491 52.5712 26.5693 52.4805 26.796 52.4481H26.809C31.7118 51.7681 35.6691 51.8587 38.9916 52.2862C41.9903 52.6748 44.458 53.3289 46.6535 53.9507C44.9761 52.0401 43.4346 49.7927 42.0421 47.3445C40.2481 44.1839 38.7066 40.68 37.4631 37.1307C36.2066 33.5427 35.2546 29.9028 34.6587 26.509C34.16 23.6592 33.9074 20.9779 33.9398 18.6528C32.0681 21.3406 29.5486 24.6048 25.844 27.895C21.6147 31.645 15.8375 35.4274 7.70276 38.4196C7.61857 38.4455 7.53437 38.4779 7.45017 38.5038L7.41131 38.5686C7.41131 38.5686 7.41779 38.5621 7.26883 38.7953L7.25587 38.8147C7.17168 38.9442 7.06805 39.0543 6.95147 39.145C6.82194 39.2421 6.67945 39.3199 6.52401 39.3652H6.50458ZM43.4541 44.3782C44.6717 46.7162 46.0188 48.8924 47.4761 50.7771C48.8621 52.5647 50.3517 54.0997 51.9191 55.259L52.081 55.2719C52.1587 55.2784 52.2365 55.2784 52.3012 55.2719H52.3271C52.4502 55.2655 52.5732 55.246 52.7028 55.2072C52.8258 55.1683 52.9554 55.11 53.0914 55.0323C53.4217 54.6955 53.6937 54.2551 53.9139 53.737C54.16 53.167 54.3414 52.4934 54.458 51.7421C54.8142 49.5206 54.6458 46.6774 54.0953 43.5362C53.4929 40.1035 52.4243 36.3276 51.0771 32.6295C49.7559 28.996 48.1626 25.4468 46.4657 22.3769C44.853 19.4494 43.1497 16.9624 41.5046 15.259C40.8893 14.6178 40.2934 14.1061 39.73 13.737C39.2054 13.3937 38.7196 13.1735 38.2727 13.1022H38.2598C38.1561 13.0828 38.0719 13.0763 38.0072 13.0699C37.9813 13.0699 38.0072 13.0504 37.9942 13.0569C37.9877 13.0569 37.9877 13.0699 37.9554 13.0958C37.8971 13.1476 37.8129 13.2253 37.7157 13.3225C37.6315 13.4002 37.5473 13.4973 37.4696 13.588L37.4437 13.6398C36.6924 15.1942 36.4333 17.6554 36.5953 20.6541C36.7636 23.6981 37.3725 27.2797 38.3634 30.9973C41.1807 30.3497 43.3828 30.9455 44.8984 32.2085C45.7857 32.9468 46.4269 33.9054 46.8219 34.974C47.2105 36.0362 47.353 37.2085 47.2365 38.3807C47.0162 40.6864 45.7792 42.9662 43.4541 44.3782ZM51.6924 57.908C51.5629 57.9274 51.4333 57.9274 51.3038 57.908C51.1807 57.8885 51.0577 57.8561 50.9411 57.7978C50.7662 57.7655 50.5914 57.7331 50.423 57.6942C49.1989 57.4416 48.0072 57.0984 46.7248 56.7357L46.6406 56.7098C42.2429 55.4598 36.7442 53.8924 27.9359 54.9805C27.8193 55.3173 27.7222 55.68 27.6445 56.0362C27.5668 56.4118 27.5214 56.7875 27.5149 57.1307C27.5149 57.4028 27.5408 57.6554 27.5991 57.8626C27.6445 58.0181 27.7157 58.1476 27.8129 58.2383L27.9683 58.3807C28.6872 59.0349 29.037 59.3587 29.2377 60.0971C29.3997 60.6929 29.3284 61.2434 29.1859 62.3315C29.1665 62.4805 29.1535 62.6295 29.1276 62.7784C29.0629 63.303 29.1471 63.6074 29.3025 63.7953C29.4644 63.9896 29.7429 64.1126 30.0279 64.2292L30.0603 64.2421C30.967 64.6308 31.8737 65.0258 32.3401 66.3147C32.3919 66.4313 32.4243 66.5608 32.4372 66.6903C32.4502 66.8199 32.4502 66.9494 32.4243 67.0854V67.0919C32.2235 68.1346 31.796 68.9313 31.2585 69.6113C30.7339 70.2784 30.1121 70.8095 29.4968 71.3406L29.3543 71.4637C29.1406 71.645 28.9333 71.8263 28.7326 72.0206L28.6289 72.1113C27.2235 73.2318 26.0253 73.6333 24.9696 73.5232C23.901 73.4131 23.0136 72.7784 22.2624 71.8328C21.7442 71.1852 21.3168 70.3885 20.9346 69.5401C20.559 68.6981 20.2351 67.8108 19.9243 66.9494C19.8401 66.7098 19.7494 66.4701 19.6587 66.2305C18.7002 63.6463 17.9942 60.5051 17.2688 57.2603C17.0357 57.3251 16.8025 57.4028 16.5693 57.4675C16.2067 57.5776 15.8504 57.6813 15.5072 57.7914C15.1574 57.9015 14.8142 58.0116 14.4774 58.1152L14.4579 58.1217C14.4061 58.1346 14.3673 58.1541 14.3349 58.167L14.3155 58.1735C14.0693 58.2771 13.888 58.3484 13.6807 58.3678C13.4929 58.3872 13.318 58.3678 13.1108 58.2901C11.239 58.8082 9.50976 58.6528 7.96831 58.031C6.2196 57.3186 4.71701 55.9909 3.5253 54.3263L3.51235 54.3134C3.06546 53.6722 2.6639 52.9857 2.30769 52.2603C1.94499 51.5284 1.64059 50.7642 1.388 49.987C1.13541 49.2098 0.941106 48.4131 0.811572 47.6165C0.682039 46.8263 0.610795 46.0362 0.597842 45.259C0.578412 43.303 0.960536 41.4507 1.80898 39.9546C2.57323 38.6139 3.71313 37.5647 5.26105 36.9818C5.31934 36.8911 5.36468 36.8134 5.41649 36.7486C5.50069 36.6385 5.59137 36.5414 5.71442 36.4377L5.74033 36.4183C5.86986 36.3082 5.99292 36.237 6.13541 36.1657C6.26494 36.1074 6.4139 36.0491 6.61468 35.9779L6.79603 35.9131C15.0279 32.882 20.7209 29.009 24.8077 25.2201C28.8945 21.4313 31.3815 17.7266 33.1756 15.0323L33.2144 14.974C34.2183 13.4714 35.0279 12.2732 35.8375 11.4636C36.0447 11.2564 36.2261 11.088 36.4204 10.9455C36.6212 10.7965 36.8284 10.68 37.0681 10.5893C37.3206 10.4986 37.5668 10.4468 37.8323 10.4339C38.0914 10.4209 38.3699 10.4468 38.6937 10.4986C39.4579 10.6217 40.2351 10.939 41.0188 11.4313C41.8155 11.93 42.6186 12.61 43.4152 13.439C45.1898 15.2784 47.0162 17.9339 48.7326 21.0362C50.5201 24.2616 52.1911 27.9662 53.5642 31.7551C54.9761 35.6411 56.0901 39.6178 56.7183 43.2642C57.2947 46.6256 57.4631 49.7149 57.0616 52.1826C56.8932 53.2188 56.6276 54.1644 56.2585 54.9805C55.8958 55.7836 55.423 56.4766 54.8401 57.0401C54.8142 57.066 54.7818 57.0919 54.7559 57.1178C54.717 57.1437 54.6782 57.1761 54.6393 57.202C54.2572 57.4546 53.888 57.6359 53.5188 57.7525C53.1432 57.8756 52.7675 57.9339 52.3919 57.9533H52.366C52.2364 57.9533 52.1134 57.9533 51.9968 57.9468C51.9061 57.9274 51.796 57.9209 51.6924 57.908ZM67.6315 50.8289C66.7313 50.8678 65.98 50.1683 65.9476 49.2681C65.9087 48.3678 66.6082 47.6165 67.5085 47.5841L78.9074 47.1567C79.8012 47.1307 80.5525 47.8302 80.5914 48.7175C80.6238 49.6178 79.9307 50.3691 79.0305 50.408L67.6315 50.8289ZM67.3077 39.7538C66.4139 39.8704 65.5978 39.2421 65.4813 38.3613C65.3647 37.4675 65.9929 36.6515 66.8738 36.5349L77.4048 35.1359C78.2986 35.0193 79.1147 35.6476 79.2313 36.5284C79.3478 37.4222 78.7196 38.2383 77.8388 38.3548L67.3077 39.7538ZM65.0927 29.5854C64.2442 29.8769 63.3116 29.43 63.0201 28.5815C62.7222 27.7331 63.1756 26.8004 64.024 26.509L74.8206 22.759C75.6691 22.4546 76.6017 22.9144 76.8932 23.7629C77.1911 24.6113 76.7377 25.544 75.8893 25.8354L65.0927 29.5854ZM60.002 19.7991C59.2248 20.246 58.2274 19.974 57.787 19.1903C57.3401 18.4131 57.6121 17.4222 58.3958 16.9753L68.6289 11.1074C69.4061 10.6605 70.4035 10.9326 70.844 11.7162C71.2909 12.4934 71.0188 13.4844 70.2352 13.9313L60.002 19.7991Z" fill="white"/>
</svg>
