<svg width="130" height="131" viewBox="0 0 130 131" fill="none" xmlns="http://www.w3.org/2000/svg">
<g opacity="0.2">
<path d="M109.871 21.2371L101.265 26.2343L101.127 30.3982L100.988 34.5907L75.5859 49.2482C61.6226 57.3264 50.1566 63.8784 50.1007 63.8511C50.0448 63.7952 50.3503 62.5459 50.739 61.0756C51.3773 58.772 51.4332 58.2715 51.1277 57.5773C50.739 56.5776 50.128 56.2162 48.8514 56.2162C47.2693 56.2162 46.9079 56.9104 45.2153 63.3233C44.3547 66.5434 43.6605 69.5139 43.6605 69.9026C43.6605 71.3742 44.2988 71.707 50.7403 73.4282C54.0995 74.3447 57.1259 75.0935 57.486 75.0935C58.4571 75.0935 59.4854 73.9001 59.4854 72.7899C59.4854 71.2351 58.8185 70.7073 55.7375 69.8467C53.0166 69.0979 52.9893 69.0693 53.6549 68.6533C54.0436 68.4037 65.5096 61.7685 79.1674 53.884L103.986 39.5593L107.455 41.5587C109.372 42.6689 111.037 43.5581 111.203 43.5022C111.536 43.419 128.388 33.7301 128.694 33.4519C128.833 33.3414 126.723 31.953 124.058 30.3709L119.172 27.5109V24.5677C119.172 20.9862 118.867 16.2399 118.645 16.2399C118.56 16.2672 114.618 18.5162 109.871 21.2371Z" fill="white"/>
<path d="M40.5782 27.65C25.8648 29.0657 12.5671 38.2268 5.90463 51.5245C4.15613 54.9955 2.74043 59.1035 1.96303 62.9619C1.07513 67.3767 1.07513 75.2612 1.99033 79.5356C3.90653 88.6135 7.59853 95.4151 14.066 101.911C19.2569 107.075 24.0604 110.129 30.5838 112.405C35.8865 114.265 38.3292 114.625 44.9085 114.625C49.8771 114.625 51.155 114.542 53.5418 114.014C61.8982 112.21 69.0053 108.462 75.0009 102.715C81.9416 96.0521 86.216 88.1403 87.9931 78.5619C88.7146 74.6749 88.6314 66.6799 87.8267 62.8774C87.2157 59.9901 85.6336 54.8824 84.9667 53.5772L84.6053 52.9103L81.8844 54.4378C80.4128 55.2711 79.1921 56.0758 79.1921 56.2149C79.1921 56.354 79.6367 57.7424 80.1632 59.3245C81.4957 63.2947 81.9949 66.5148 81.9949 70.9283C82.0222 78.7569 79.9968 85.5858 75.8043 91.8882C73.8881 94.7482 69.5578 99.2449 66.7823 101.244C56.3446 108.767 42.8792 110.433 31.0258 105.658C26.1404 103.687 22.5589 101.328 18.6719 97.4678C13.1755 92.0546 9.56673 85.1425 8.23423 77.5076C7.62323 74.0925 7.62323 68.2347 8.23423 64.8209C10.9265 49.7461 22.282 37.9759 37.2723 34.6999C40.1037 34.0889 46.878 33.8393 49.7926 34.2553C56.316 35.1991 62.0906 37.5586 67.2828 41.3897C68.2539 42.1398 70.226 43.8883 71.6417 45.3313L74.1962 47.9131L76.973 46.331L79.7212 44.7203L78.8333 43.6101C77.1953 41.4729 72.9196 37.4754 70.2832 35.5865C67.2022 33.3934 62.01 30.7557 58.513 29.6182C52.6825 27.7059 46.7415 27.0676 40.5782 27.65Z" fill="white"/>
<path d="M40.3286 41.8083C37.8573 42.197 33.0824 43.8077 30.8893 45.0284C23.088 49.3314 17.6475 56.7154 15.8431 65.3773C15.093 68.9029 15.2321 74.9544 16.1486 78.3422C18.8695 88.6967 26.6149 96.693 36.803 99.6349C50.2671 103.549 64.8973 97.1636 71.2543 84.616C74.0025 79.2301 75.1413 72.318 74.2248 66.7098C73.892 64.7949 72.8936 60.9352 72.5322 60.4087C72.3658 60.1032 71.5325 60.436 68.5906 62.1299C66.5639 63.296 64.7322 64.3503 64.5372 64.4894C64.259 64.6844 64.259 65.0718 64.6204 66.5161C65.1755 68.9042 65.1482 73.5959 64.5931 75.8995C63.1501 81.7014 59.2631 86.5881 54.0709 89.1413C48.6018 91.8336 43.3823 92.1118 37.7468 90.0851C31.7785 87.892 26.9204 82.5347 25.3097 76.2882C24.5323 73.2904 24.5596 68.7651 25.337 65.9337C27.0023 60.02 30.6111 55.6624 36.0256 53.0247C39.4407 51.3594 42.1057 50.8316 45.8536 51.0253C50.3789 51.2476 54.21 52.6633 57.3742 55.2451C58.2348 55.9393 59.0122 56.4944 59.124 56.4944C59.4568 56.4944 67.2581 51.9418 67.2581 51.7468C67.2581 51.6363 66.3702 50.7198 65.2873 49.6928C61.5667 46.1945 56.9309 43.6413 51.7959 42.3088C49.2401 41.6419 43.1613 41.3637 40.3286 41.8083Z" fill="white"/>
<path d="M41.2451 62.0741C38.1641 63.2675 35.5537 66.7099 35.165 70.0977C34.8036 73.401 36.5807 77.288 39.3289 79.1756C43.16 81.8133 48.3509 81.3687 51.6555 78.1486C53.8486 76.0387 53.9604 76.1492 48.7136 74.8167C44.4938 73.7065 43.9946 73.5115 43.0495 72.5963C41.522 71.0974 41.4674 70.2368 42.6608 65.822C43.2159 63.768 43.6605 61.9636 43.6605 61.7972C43.6605 61.3526 42.8831 61.4358 41.2451 62.0741Z" fill="white"/>
</g>
</svg>
