<svg width="121" height="121" viewBox="0 0 121 121" fill="none" xmlns="http://www.w3.org/2000/svg">
<circle cx="60.6227" cy="60.8481" r="60" fill="#F56200"/>
<g clip-path="url(#clip0_1049_8315)">
<path d="M47.745 82.4485L47.736 82.4542L47.7271 82.46C47.3173 82.7264 47.0003 82.8086 46.7549 82.8178C46.5115 82.8269 46.2022 82.7696 45.797 82.5424C45.0976 82.1504 44.7942 81.658 44.7924 80.777V39.89C44.7924 39.3908 44.8967 39.0605 45.0308 38.8282C45.1639 38.5979 45.3887 38.3556 45.7981 38.1258C46.2053 37.8972 46.5148 37.84 46.7568 37.8491C47.0006 37.8582 47.3156 37.94 47.7232 38.2063L47.7341 38.2134L47.745 38.2203L79.9214 58.6514C80.5275 59.0608 80.7924 59.5479 80.7924 60.3344C80.7924 61.1209 80.5275 61.608 79.9215 62.0174L47.745 82.4485Z" stroke="white" stroke-width="4"/>
</g>
<defs>
<clipPath id="clip0_1049_8315">
<rect width="50" height="50" fill="white" transform="translate(35.6227 35.8481)"/>
</clipPath>
</defs>
</svg>
