<svg width="100" height="100" viewBox="0 0 100 100" fill="none" xmlns="http://www.w3.org/2000/svg">
<g clip-path="url(#clip0_311_193)">
<path d="M81.8197 90.2928H78.9766V93.5163H81.8197C84.6564 93.5163 87.2078 91.94 88.4779 89.4015L85.5944 87.959C84.874 89.3983 83.4282 90.2928 81.8197 90.2928Z" fill="black"/>
<path d="M99.2054 69.4762L97.8789 64.1622L92.2136 65.579C91.643 65.7224 91.0612 65.8143 90.4777 65.8997C92.4682 60.8452 93.482 55.5103 93.482 49.9997C93.482 45 92.6391 40.1325 90.9935 35.4874C94.0945 35.4503 97.0456 34.1094 99.1055 31.7836L100.002 30.7714L99.7179 29.8962C98.788 27.0241 98.3173 24.0391 98.3173 21.0235V17.8322C98.3173 8.0182 90.3343 0.0351562 80.5203 0.0351562C73.8556 0.0351562 68.0436 3.72286 64.9958 9.15933C60.1912 7.38961 55.1431 6.48219 49.9645 6.48219C44.3057 6.48219 38.8273 7.55724 33.6487 9.65575C32.9476 6.33713 30.2205 3.75832 26.8132 3.32315C25.7076 1.2891 23.6074 0.0351563 21.2817 0.0351563C19.9955 0.0351563 18.7689 0.417143 17.7294 1.12954C16.6914 0.418755 15.4648 0.0351563 14.177 0.0351563C11.8529 0.0351563 9.75276 1.2891 8.64548 3.32315C4.90458 3.80023 1.95668 6.85129 1.63916 10.6405C0.593127 11.8316 0 13.3918 0 14.9826C0 15.9948 0.23854 17.0102 0.693057 17.9208L0.857456 18.2496C0.319128 19.0297 0 19.971 0 20.988C0 23.6539 2.16943 25.8233 4.83528 25.8233H5.25917C5.99736 28.6745 7.68164 31.1405 9.96551 32.8699C7.63974 38.2854 6.44704 44.0378 6.44704 49.9997C6.44704 55.7102 7.54303 61.2369 9.68023 66.4574C3.94398 69.3972 0 75.3575 0 82.2349V92.8064C0 96.7536 3.21062 99.9642 7.15782 99.9642C7.92986 99.9642 8.69061 99.8401 9.42235 99.5968L12.1623 98.6829C13.8515 99.4952 15.734 99.9642 17.7294 99.9642C19.7247 99.9642 21.6072 99.4952 23.2948 98.6829L26.0347 99.5968C26.7665 99.8401 27.5288 99.9642 28.3009 99.9642C32.2481 99.9642 35.4587 96.7536 35.4587 92.8064V91.0351C40.1038 92.6791 44.9697 93.5172 49.9645 93.5172C56.0231 93.5172 61.8706 92.2858 67.3683 89.8827C67.9631 90.1438 68.6158 90.2937 69.3057 90.2937H69.7295C71.1672 95.8462 76.204 99.9642 82.1997 99.9642C88.1955 99.9642 93.2322 95.8462 94.6699 90.2937H95.0938C97.7596 90.2937 99.9291 88.1242 99.9291 85.4584C99.9291 84.3141 99.5132 83.2745 98.846 82.446C99.5535 80.1412 99.9291 77.7574 99.9291 75.3462C99.9291 73.3686 99.6857 71.3926 99.2054 69.4762ZM70.7836 22.5998V18.1884C70.7836 16.7572 71.7459 15.4823 73.1207 15.089L77.0969 13.9527C79.2244 15.3646 81.7597 16.1527 84.4385 16.1527H86.9012C88.679 16.1527 90.1247 17.5985 90.1247 19.3763V22.5998C90.1247 27.9331 85.7875 32.2703 80.4542 32.2703C75.1209 32.2703 70.7836 27.9331 70.7836 22.5998ZM80.5203 3.25867C88.5549 3.25867 95.0938 9.79597 95.0938 17.8322V21.0235C95.0938 24.0617 95.5241 27.0708 96.3719 29.9833C94.5265 31.8352 91.7413 32.5798 89.1964 32.0511C91.743 29.6948 93.3483 26.3358 93.3483 22.5998V19.3763C93.3483 15.8207 90.4568 12.9292 86.9012 12.9292H84.4385C80.6073 12.9292 77.1614 10.8001 75.4497 7.3735L72.5662 8.81602C73.0385 9.7589 73.6074 10.6276 74.2634 11.411L72.2374 11.9896C69.4846 12.7745 67.5617 15.3243 67.5617 18.1884V22.5998C67.5617 26.3471 69.1783 29.7173 71.741 32.0753C69.2283 32.5605 66.4915 31.811 64.6718 29.9833C65.5196 27.0708 65.95 24.0617 65.95 21.0235V17.8322C65.9484 9.79597 72.4857 3.25867 80.5203 3.25867ZM30.6234 19.3763C31.5131 19.3763 32.2352 20.0999 32.2352 20.988C32.2352 21.8761 31.5131 22.5998 30.6234 22.5998V19.3763ZM3.22352 20.988C3.22352 20.0999 3.94559 19.3763 4.83528 19.3763V22.5998C3.94559 22.5998 3.22352 21.8761 3.22352 20.988ZM5.17052 16.1527H4.83528C4.38076 16.1527 3.94881 16.2366 3.53136 16.3542C3.33795 15.9223 3.22352 15.4532 3.22352 14.9826C3.22352 14.1026 3.58133 13.2387 4.19863 12.6198L4.83528 11.988V11.3175C4.83528 8.65162 7.00471 6.48219 9.67056 6.48219H10.6682L11.429 4.95747C11.9528 3.90983 13.0053 3.25867 14.177 3.25867C14.999 3.25867 15.7695 3.5778 16.3497 4.15642L17.7294 5.54254L19.1074 4.15965C19.6893 3.5778 20.4597 3.25867 21.2817 3.25867C22.4534 3.25867 23.5059 3.90983 24.0297 4.95586L24.7905 6.48219H25.7881C28.454 6.48219 30.6234 8.65162 30.6234 11.3175V11.988L31.2568 12.6182C31.8774 13.2387 32.2352 14.1026 32.2352 14.9826C32.2352 15.4549 32.1208 15.9239 31.9273 16.3542C31.5099 16.2366 31.0779 16.1527 30.6234 16.1527H29.7273C28.6087 14.2348 26.5521 12.9292 24.1764 12.9292H21.7136C17.8825 12.9292 14.4365 10.8001 12.7248 7.3735L9.83979 8.81441C10.312 9.75729 10.881 10.626 11.537 11.4093L9.51099 11.9896C7.43666 12.5811 5.83457 14.1767 5.17052 16.1527ZM8.0588 22.5998V18.1884C8.0588 16.7572 9.02102 15.4823 10.3958 15.089L14.3721 13.9527C16.4996 15.3646 19.0365 16.1527 21.7136 16.1527H24.1764C25.9542 16.1527 27.3999 17.5985 27.3999 19.3763V22.5998C27.3999 27.9331 23.0627 32.2703 17.7294 32.2703C12.396 32.2703 8.0588 27.9331 8.0588 22.5998ZM8.0588 87.0702V82.6588C8.0588 81.2275 9.02102 79.9526 10.3958 79.5594L14.3721 78.4231C16.4996 79.835 19.0365 80.6231 21.7136 80.6231H24.1764C25.9542 80.6231 27.3999 82.0689 27.3999 83.8466V87.0702C27.3999 92.4035 23.0627 96.7407 17.7294 96.7407C12.396 96.7407 8.0588 92.4035 8.0588 87.0702ZM32.2352 92.8064C32.2352 94.9758 30.4703 96.7407 28.3009 96.7407C27.877 96.7407 27.4595 96.673 27.0566 96.5392L26.615 96.3926C29.0778 94.041 30.6234 90.7353 30.6234 87.0702V83.8466C30.6234 80.2911 27.7319 77.3996 24.1764 77.3996H21.7136C17.8825 77.3996 14.4365 75.2705 12.7248 71.8439L9.8414 73.2864C10.3136 74.2293 10.8826 75.098 11.5386 75.8813L9.5126 76.4599C6.75811 77.2449 4.83528 79.7947 4.83528 82.6588V87.0702C4.83528 90.7353 6.38095 94.041 8.84533 96.391L8.40371 96.5376C8.00077 96.673 7.58172 96.7407 7.15782 96.7407C4.9884 96.7407 3.22352 94.9758 3.22352 92.8064V82.2349C3.22352 74.2373 9.73019 67.729 17.7294 67.729C25.7285 67.729 32.2352 74.2373 32.2352 82.2349V92.8064ZM35.4587 87.5908V82.2349C35.4587 72.4596 27.5047 64.5055 17.7294 64.5055C15.9709 64.5055 14.2737 64.7715 12.6684 65.2502C10.6876 60.4149 9.67056 55.2943 9.67056 49.9997C9.67056 44.61 10.7198 39.4056 12.77 34.4994C14.2979 35.1377 15.9725 35.4939 17.7294 35.4939C23.7235 35.4939 28.7618 31.3758 30.1995 25.8233H30.6234C33.2893 25.8233 35.4587 23.6539 35.4587 20.988C35.4587 19.971 35.1396 19.0297 34.6012 18.2496L34.7673 17.9176C35.2202 17.0102 35.4587 15.9948 35.4587 14.9826C35.4587 14.159 35.2927 13.3467 34.9945 12.5859C39.7492 10.6792 44.7731 9.70571 49.9645 9.70571C54.6902 9.70571 59.2966 10.518 63.6854 12.1088C63.073 13.9076 62.7248 15.8272 62.7248 17.8306V21.0219C62.7248 24.0375 62.2542 27.0225 61.3258 29.893L61.0422 30.7682L61.9383 31.7804C64.0255 34.1416 67.0282 35.4939 70.1776 35.4939C71.878 35.4939 73.58 35.0909 75.0967 34.3334L75.1177 34.3237C76.7455 35.0684 78.5491 35.4939 80.4542 35.4939C82.3851 35.4939 84.2128 35.0555 85.8584 34.2899L85.9422 34.3318C86.3871 34.5542 86.848 34.7347 87.3187 34.8959C89.2625 39.6925 90.2585 44.7679 90.2585 49.9997C90.2585 55.5941 89.1255 60.9871 86.9157 66.0593C85.7553 65.9996 84.598 65.8626 83.4682 65.579L80.5654 64.8537C79.6435 64.6232 78.6909 64.5055 77.7384 64.5055C77.5079 64.5055 77.2839 64.5265 77.0566 64.5394C77.2452 64.0236 77.3644 63.474 77.3644 62.8938C77.3644 60.7953 76.0122 59.0223 74.1409 58.3551V45.1644V41.9409C74.1409 40.1631 72.6952 38.7174 70.9174 38.7174H56.057L55.5332 36.6189C54.8949 34.0578 52.6046 32.2703 49.9645 32.2703C47.3245 32.2703 45.0342 34.0578 44.3959 36.6189L43.8721 38.7174H29.0117C27.2339 38.7174 25.7881 40.1631 25.7881 41.9409V45.1644C25.7881 46.9422 27.2339 48.3879 29.0117 48.3879H32.2352V58.0585C32.2352 59.8363 33.6809 61.282 35.4587 61.282H64.4704C66.2481 61.282 67.6939 59.8363 67.6939 58.0585V48.3879H70.9174V58.3551C69.0462 59.0223 67.6939 60.7953 67.6939 62.8938C67.6939 64.7618 68.7705 66.3687 70.3259 67.173C67.7358 69.3134 66.0821 72.5482 66.0821 76.1634V81.8803C65.1006 82.7651 64.4704 84.0352 64.4704 85.4584C64.4704 86.1627 64.6299 86.8268 64.9007 87.4312C60.1589 89.3298 55.1447 90.2937 49.9645 90.2937C44.952 90.2937 40.0796 89.3766 35.4587 87.5908ZM35.4587 48.3879H64.4704V58.0585H35.4587V48.3879ZM29.0117 45.1644V41.9409H70.9174L70.919 45.1644H29.0117ZM47.1923 38.7174L47.5211 37.4006C47.8032 36.2772 48.8073 35.4939 49.9645 35.4939C51.1218 35.4939 52.1259 36.2772 52.408 37.4006L52.7368 38.7174H47.1923ZM72.5292 61.282C73.4189 61.282 74.1409 62.0057 74.1409 62.8938C74.1409 63.7818 73.4189 64.5055 72.5292 64.5055C71.6395 64.5055 70.9174 63.7818 70.9174 62.8938C70.9174 62.0057 71.6395 61.282 72.5292 61.282ZM67.6939 85.4584C67.6939 84.5703 68.416 83.8466 69.3057 83.8466V87.0702C68.416 87.0702 67.6939 86.3465 67.6939 85.4584ZM91.8703 87.0702C91.8703 92.4035 87.533 96.7407 82.1997 96.7407C76.8664 96.7407 72.5292 92.4035 72.5292 87.0702V82.6588C72.5292 81.2275 73.4914 79.9526 74.8662 79.5594L78.8424 78.4231C80.97 79.835 83.5069 80.6231 86.184 80.6231H88.6468C90.4245 80.6231 91.8703 82.0689 91.8703 83.8466V87.0702ZM88.6468 77.3996H86.184C82.3528 77.3996 78.9069 75.2705 77.1952 71.8439L74.3118 73.2864C74.784 74.2293 75.353 75.098 76.009 75.8813L73.983 76.4599C71.907 77.0515 70.3066 78.6471 69.6425 80.6231H69.3057V76.1634C69.3057 71.5135 73.0901 67.729 77.7384 67.729C78.4282 67.729 79.1148 67.8145 79.7853 67.9805L82.6881 68.7058C86.0534 69.5471 89.6299 69.5471 92.9953 68.7058L95.5338 68.0707L96.0802 70.2563C96.4944 71.9196 96.7056 73.6313 96.7056 75.3462C96.7056 77.1643 96.459 78.963 95.9948 80.715C95.7014 80.6586 95.4016 80.6231 95.0938 80.6231H94.1977C93.0791 78.7051 91.0225 77.3996 88.6468 77.3996ZM95.0938 87.0702V83.8466C95.9835 83.8466 96.7056 84.5703 96.7056 85.4584C96.7056 86.3465 95.9835 87.0702 95.0938 87.0702Z" fill="black"/>
<path d="M24.0072 24.9328L21.1237 23.4902C20.4033 24.9295 18.9575 25.8241 17.349 25.8241H14.5059V29.0476H17.349C20.1841 29.0476 22.7355 27.4713 24.0072 24.9328Z" fill="black"/>
<path d="M17.349 90.2928H14.5059V93.5163H17.349C20.1857 93.5163 22.7371 91.94 24.0072 89.4015L21.1237 87.959C20.4033 89.3983 18.9575 90.2928 17.349 90.2928Z" fill="black"/>
<path d="M86.7318 24.9328L83.8484 23.4902C83.1279 24.9295 81.6821 25.8241 80.0736 25.8241H77.2305V29.0476H80.0736C82.9087 29.0476 85.4601 27.4713 86.7318 24.9328Z" fill="black"/>
</g>
<defs>
<clipPath id="clip0_311_193">
<rect width="100" height="100" fill="white"/>
</clipPath>
</defs>
</svg>
