<svg width="100" height="100" viewBox="0 0 100 100" fill="none" xmlns="http://www.w3.org/2000/svg">
<path d="M92.1875 37.6098V34.4848C92.1885 33.8376 92.059 33.1968 91.8066 32.6008C91.5542 32.0048 91.1842 31.4658 90.7188 31.0161C90.2484 30.5705 89.6937 30.2234 89.0873 29.9953C88.4808 29.7673 87.8349 29.6628 87.1875 29.688C81.4228 29.844 75.6778 30.429 70 31.438L67.9375 31.8442C67.4947 27.4595 65.4641 23.3879 62.228 20.3962C58.992 17.4045 54.7738 15.6991 50.3679 15.6011C45.9619 15.5032 41.6721 17.0194 38.3064 19.8644C34.9406 22.7093 32.731 26.6866 32.0938 31.0473C32.0938 31.3286 32.0938 31.5942 32.0938 31.8598C25.7391 30.5953 19.2892 29.8688 12.8125 29.688C12.1639 29.6692 11.5182 29.7805 10.9133 30.0153C10.3085 30.2501 9.75675 30.6037 9.29073 31.0551C8.82471 31.5066 8.45381 32.0468 8.19993 32.6439C7.94605 33.241 7.81431 33.8829 7.8125 34.5317V37.6567C6.04787 38.0169 4.46188 38.9758 3.32296 40.3709C2.18404 41.7661 1.56213 43.512 1.5625 45.313V89.063C1.5625 91.135 2.3856 93.1221 3.85073 94.5872C4.57619 95.3127 5.43743 95.8882 6.38529 96.2808C7.33314 96.6734 8.34905 96.8755 9.375 96.8755H90.625C92.697 96.8755 94.6841 96.0524 96.1493 94.5872C97.6144 93.1221 98.4375 91.135 98.4375 89.063V45.313C98.4487 43.5039 97.8318 41.747 96.6919 40.3422C95.5521 38.9374 93.96 37.9716 92.1875 37.6098ZM35.2188 31.4848C35.7156 28.2373 37.2639 25.2423 39.6261 22.9591C41.9884 20.6758 45.0343 19.2303 48.2969 18.8442C48.8625 18.782 49.431 18.7507 50 18.7505C53.6713 18.7417 57.2142 20.1009 59.9375 22.563C61.5768 24.0279 62.8725 25.8367 63.7321 27.8602C64.5918 29.8836 64.9942 32.0719 64.9106 34.2688C64.827 36.4657 64.2595 38.6171 63.2486 40.5694C62.2377 42.5217 60.8083 44.2268 59.0625 45.563C57.7385 46.5446 56.661 47.8208 55.9153 49.2906C55.1695 50.7604 54.7759 52.3836 54.7656 54.0317C54.7615 54.6189 54.5265 55.1809 54.1112 55.5961C53.696 56.0113 53.1341 56.2464 52.5469 56.2505H51.5625V45.313C51.5632 44.9479 51.4361 44.5941 51.2031 44.313L45.5156 37.5005H54.0313L51.2344 40.2973C50.9784 40.5963 50.8446 40.9808 50.8598 41.374C50.875 41.7672 51.038 42.1403 51.3163 42.4185C51.5946 42.6968 51.9676 42.8598 52.3609 42.875C52.7541 42.8902 53.1386 42.7565 53.4375 42.5005L58.9063 37.0317C59.1204 36.8133 59.2657 36.5369 59.3242 36.2367C59.3827 35.9365 59.3518 35.6257 59.2354 35.3429C59.1189 35.0601 58.922 34.8177 58.6691 34.6457C58.4162 34.4737 58.1183 34.3798 57.8125 34.3755H42.1875C41.8903 34.375 41.5992 34.4593 41.3482 34.6184C41.0973 34.7775 40.8969 35.0049 40.7706 35.2739C40.6443 35.5429 40.5973 35.8423 40.6352 36.1371C40.6731 36.4318 40.7942 36.7096 40.9844 36.938L48.4375 45.8755V56.2505H47.4531C47.1584 56.2505 46.8666 56.1922 46.5944 56.0789C46.3223 55.9656 46.0753 55.7997 45.8676 55.5905C45.6599 55.3814 45.4957 55.1332 45.3843 54.8603C45.273 54.5874 45.2167 54.2952 45.2188 54.0005C45.2006 52.3543 44.8019 50.7347 44.0538 49.2682C43.3056 47.8017 42.2284 46.5283 40.9063 45.5473C38.7826 43.9303 37.1337 41.771 36.1329 39.2965C35.1321 36.822 34.8163 34.1236 35.2188 31.4848ZM10.9375 34.5317C10.9394 34.2999 10.9878 34.0709 11.0798 33.8581C11.1718 33.6453 11.3055 33.4531 11.473 33.2929C11.6405 33.1327 11.8384 33.0076 12.0551 32.9252C12.2717 32.8428 12.5027 32.8046 12.7344 32.813C19.2136 32.993 25.6649 33.7354 32.0156 35.0317C32.195 37.5737 32.9167 40.0478 34.1322 42.2874C35.3477 44.5271 37.0289 46.4805 39.0625 48.0161C40.0126 48.7058 40.7894 49.6068 41.3317 50.648C41.874 51.6893 42.167 52.8423 42.1875 54.0161C42.1873 55.4214 42.739 56.7706 43.7239 57.773C44.7088 58.7754 46.048 59.3509 47.4531 59.3755H52.5469C53.2541 59.3734 53.9539 59.2319 54.6062 58.9589C55.2586 58.6859 55.8507 58.2868 56.3486 57.7846C56.8464 57.2824 57.2403 56.6869 57.5076 56.0321C57.7749 55.3774 57.9104 54.6764 57.9063 53.9692C57.9316 52.8051 58.2271 51.6628 58.7694 50.6324C59.3117 49.602 60.086 48.7117 61.0313 48.0317C63.0552 46.487 64.7264 44.5285 65.9335 42.2868C67.1406 40.0451 67.8558 37.5717 68.0313 35.0317L70.625 34.5161C76.1222 33.5384 81.6843 32.9691 87.2656 32.813C87.5001 32.8009 87.7344 32.8393 87.9527 32.9256C88.1711 33.0118 88.3683 33.1439 88.5312 33.313C88.6961 33.4733 88.8267 33.6653 88.9153 33.8774C89.0039 34.0896 89.0487 34.3174 89.0469 34.5473V84.2192C89.0473 84.6618 88.877 85.0876 88.5714 85.4078C88.2658 85.7279 87.8484 85.9179 87.4062 85.938C75.1424 86.102 63.0056 88.4458 51.5625 92.8599V65.6255H53.125C53.5394 65.6255 53.9368 65.4609 54.2299 65.1678C54.5229 64.8748 54.6875 64.4774 54.6875 64.063C54.6875 63.6486 54.5229 63.2511 54.2299 62.9581C53.9368 62.6651 53.5394 62.5005 53.125 62.5005H46.875C46.4606 62.5005 46.0632 62.6651 45.7701 62.9581C45.4771 63.2511 45.3125 63.6486 45.3125 64.063C45.3125 64.4774 45.4771 64.8748 45.7701 65.1678C46.0632 65.4609 46.4606 65.6255 46.875 65.6255H48.4375V92.8755C36.9973 88.4496 24.8592 86.1003 12.5938 85.938C12.1488 85.9218 11.7275 85.7336 11.4186 85.413C11.1097 85.0924 10.9372 84.6644 10.9375 84.2192V34.5317ZM4.6875 89.063V45.313C4.69022 44.3459 4.992 43.4033 5.55147 42.6144C6.11093 41.8256 6.9007 41.2291 7.8125 40.9067V84.2192C7.81962 85.4749 8.311 86.6794 9.18424 87.5818C10.0575 88.4841 11.2452 89.0147 12.5 89.063C22.3096 89.2957 32.0409 90.8729 41.4219 93.7505H9.375C8.1318 93.7505 6.93951 93.2566 6.06044 92.3775C5.18136 91.4985 4.6875 90.3062 4.6875 89.063ZM95.3125 89.063C95.3125 90.3062 94.8186 91.4985 93.9396 92.3775C93.0605 93.2566 91.8682 93.7505 90.625 93.7505H58.5625C67.9485 90.8715 77.6851 89.2942 87.5 89.063C88.7548 89.0147 89.9425 88.4841 90.8158 87.5818C91.689 86.6794 92.1804 85.4749 92.1875 84.2192V40.8598C93.1069 41.1849 93.902 41.7885 94.4621 42.5867C95.0222 43.3849 95.3195 44.3379 95.3125 45.313V89.063Z" fill="black"/>
<path d="M17.0775 42.1879C19.14 42.3285 21.2181 42.516 23.2494 42.766H23.4369C23.8513 42.7909 24.2586 42.6501 24.5692 42.3746C24.8798 42.0992 25.0683 41.7116 25.0931 41.2972C25.118 40.8828 24.9772 40.4755 24.7018 40.1649C24.4263 39.8543 24.0388 39.6659 23.6244 39.641C21.5463 39.391 19.4056 39.1879 17.2963 39.0472C16.8819 39.0203 16.4737 39.1591 16.1617 39.4331C15.8496 39.7071 15.6591 40.0938 15.6322 40.5082C15.6053 40.9226 15.7441 41.3307 16.018 41.6428C16.292 41.9549 16.6787 42.1453 17.0931 42.1722L17.0775 42.1879Z" fill="black"/>
<path d="M17.0775 48.641C20.8893 48.8896 24.686 49.3329 28.4525 49.9691H28.7181C28.9233 49.9866 29.13 49.9634 29.3262 49.901C29.5224 49.8386 29.7045 49.7381 29.8619 49.6054C30.0193 49.4726 30.1491 49.3102 30.2437 49.1273C30.3383 48.9444 30.396 48.7446 30.4135 48.5394C30.4309 48.3342 30.4078 48.1276 30.3453 47.9314C30.2829 47.7351 30.1825 47.5531 30.0497 47.3957C29.917 47.2383 29.7545 47.1085 29.5716 47.0139C29.3887 46.9192 29.189 46.8616 28.9838 46.8441C25.1138 46.1875 21.2129 45.7286 17.2963 45.4691C16.8819 45.4422 16.4737 45.581 16.1617 45.855C15.8496 46.1289 15.6591 46.5157 15.6322 46.9301C15.6053 47.3445 15.7441 47.7526 16.018 48.0647C16.292 48.3767 16.6787 48.5672 17.0931 48.5941L17.0775 48.641Z" fill="black"/>
<path d="M15.6241 57.9218C15.5984 58.3338 15.7368 58.7393 16.0091 59.0496C16.2813 59.36 16.6654 59.5499 17.0773 59.578C25.4345 60.0901 33.701 61.5954 41.7023 64.0624C42.098 64.1867 42.5269 64.1487 42.8947 63.9568C43.2624 63.7649 43.5389 63.4347 43.6632 63.039C43.7875 62.6432 43.7495 62.2143 43.5576 61.8465C43.3657 61.4788 43.0355 61.2023 42.6398 61.078C34.4025 58.5151 25.8895 56.9415 17.2804 56.3905C17.0701 56.3778 16.8593 56.4078 16.6609 56.4787C16.4624 56.5496 16.2804 56.6598 16.1257 56.8029C15.9709 56.9459 15.8467 57.1188 15.7606 57.3111C15.6744 57.5034 15.628 57.7111 15.6241 57.9218Z" fill="black"/>
<path d="M42.6556 68.7504C34.4184 66.1876 25.9054 64.614 17.2963 64.0629C17.0911 64.0495 16.8853 64.0767 16.6906 64.1429C16.4959 64.2091 16.3162 64.313 16.1617 64.4487C15.8496 64.7227 15.6591 65.1094 15.6322 65.5238C15.6053 65.9382 15.7441 66.3463 16.018 66.6584C16.292 66.9705 16.6787 67.1609 17.0931 67.1879C25.451 67.7051 33.7175 69.2158 41.7181 71.6879C42.0846 71.7417 42.4583 71.6635 42.7725 71.4674C43.0867 71.2712 43.321 70.9699 43.4336 70.617C43.5462 70.2641 43.5298 69.8828 43.3873 69.5409C43.2448 69.199 42.9855 68.9188 42.6556 68.7504Z" fill="black"/>
<path d="M42.6556 76.5629C34.4184 73.9999 25.9054 72.4264 17.2963 71.8754C16.8819 71.8484 16.4737 71.9872 16.1617 72.2612C15.8496 72.5352 15.6591 72.9219 15.6322 73.3363C15.6053 73.7507 15.7441 74.1588 16.018 74.4709C16.292 74.783 16.6787 74.9734 17.0931 75.0004C25.4534 75.5796 33.7148 77.1532 41.7025 79.6879C42.1169 79.8143 42.5646 79.7709 42.947 79.5672C43.3294 79.3636 43.6152 79.0163 43.7416 78.6019C43.868 78.1875 43.8246 77.7399 43.6209 77.3575C43.4173 76.9751 43.07 76.6893 42.6556 76.5629Z" fill="black"/>
<path d="M57.8124 64.1566C57.9678 64.1802 58.1258 64.1802 58.2812 64.1566C66.2817 61.6844 74.5483 60.1737 82.9062 59.6566C83.3206 59.6297 83.7073 59.4392 83.9813 59.1272C84.2553 58.8151 84.394 58.407 84.3671 57.9926C84.3402 57.5782 84.1497 57.1914 83.8376 56.9174C83.5256 56.6435 83.1174 56.5047 82.703 56.5316C74.0939 57.0826 65.5809 58.6562 57.3437 61.2191C57.1385 61.2499 56.9414 61.3208 56.7636 61.4277C56.5858 61.5347 56.4308 61.6756 56.3075 61.8425C56.0584 62.1795 55.9534 62.6016 56.0155 63.016C56.0777 63.4304 56.3019 63.8031 56.6389 64.0522C56.9759 64.3013 57.398 64.4063 57.8124 64.3441V64.1566Z" fill="black"/>
<path d="M57.8124 71.766C57.9678 71.7896 58.1258 71.7896 58.2812 71.766C66.2785 69.2674 74.5451 67.7305 82.9062 67.1879C83.1114 67.1745 83.3119 67.1209 83.4964 67.0301C83.6808 66.9392 83.8456 66.8129 83.9813 66.6584C84.1169 66.5039 84.2208 66.3242 84.287 66.1295C84.3532 65.9348 84.3804 65.729 84.3671 65.5238C84.3538 65.3186 84.3001 65.1181 84.2093 64.9336C84.1184 64.7491 83.9922 64.5844 83.8376 64.4487C83.6831 64.313 83.5034 64.2091 83.3087 64.1429C83.114 64.0767 82.9082 64.0495 82.703 64.0629C74.0939 64.614 65.5809 66.1876 57.3437 68.7504C56.9293 68.8125 56.5565 69.0368 56.3075 69.3737C56.0584 69.7107 55.9534 70.1328 56.0155 70.5472C56.0777 70.9616 56.3019 71.3344 56.6389 71.5834C56.9759 71.8325 57.398 71.9375 57.8124 71.8754V71.766Z" fill="black"/>
<path d="M57.8124 79.6879C57.9678 79.7114 58.1258 79.7114 58.2812 79.6879C66.2817 77.2156 74.5483 75.705 82.9062 75.1879C83.3206 75.1609 83.7073 74.9705 83.9813 74.6584C84.2553 74.3463 84.394 73.9382 84.3671 73.5238C84.3402 73.1094 84.1497 72.7227 83.8376 72.4487C83.5256 72.1747 83.1174 72.0359 82.703 72.0629C74.1015 72.5529 65.5887 74.0635 57.3437 76.5629C56.9293 76.625 56.5565 76.8493 56.3075 77.1862C56.0584 77.5232 55.9534 77.9453 56.0155 78.3597C56.0777 78.7741 56.3019 79.1469 56.6389 79.396C56.9759 79.645 57.398 79.75 57.8124 79.6879Z" fill="black"/>
<path d="M50 10.9375C50.4144 10.9375 50.8118 10.7729 51.1049 10.4799C51.3979 10.1868 51.5625 9.7894 51.5625 9.375V3.125C51.5625 2.7106 51.3979 2.31317 51.1049 2.02015C50.8118 1.72712 50.4144 1.5625 50 1.5625C49.5856 1.5625 49.1882 1.72712 48.8951 2.02015C48.6021 2.31317 48.4375 2.7106 48.4375 3.125V9.375C48.4375 9.7894 48.6021 10.1868 48.8951 10.4799C49.1882 10.7729 49.5856 10.9375 50 10.9375Z" fill="black"/>
<path d="M61.0462 15.5154C61.2518 15.5166 61.4557 15.4771 61.6461 15.3994C61.8364 15.3216 62.0096 15.2071 62.1556 15.0622L66.5774 10.6404C66.8334 10.3415 66.9672 9.95696 66.952 9.56372C66.9368 9.17047 66.7738 8.79744 66.4955 8.51917C66.2172 8.2409 65.8442 8.07788 65.451 8.06269C65.0577 8.0475 64.6732 8.18126 64.3743 8.43724L59.9368 12.8435C59.7165 13.062 59.5662 13.3413 59.5051 13.6455C59.4441 13.9498 59.475 14.2654 59.5941 14.5521C59.7131 14.8387 59.9147 15.0834 60.1734 15.2549C60.432 15.4265 60.7358 15.5172 61.0462 15.5154Z" fill="black"/>
<path d="M37.8445 15.0622C38.1434 15.3182 38.5279 15.452 38.9211 15.4368C39.3144 15.4216 39.6874 15.2586 39.9657 14.9803C40.2439 14.702 40.4069 14.329 40.4221 13.9358C40.4373 13.5425 40.3036 13.158 40.0476 12.8591L35.6413 8.42161C35.3424 8.16563 34.9579 8.03187 34.5647 8.04706C34.1715 8.06225 33.7984 8.22527 33.5201 8.50355C33.2419 8.78182 33.0789 9.15485 33.0637 9.54809C33.0485 9.94134 33.1822 10.3258 33.4382 10.6247L37.8445 15.0622Z" fill="black"/>
</svg>
