<svg width="28" height="25" viewBox="0 0 28 25" fill="none" xmlns="http://www.w3.org/2000/svg">
<path d="M10.5013 24.3938C16.3011 24.3938 21.0027 19.6922 21.0027 13.8924C21.0027 8.09272 16.3011 3.39111 10.5013 3.39111C4.7016 3.39111 0 8.09272 0 13.8924C0 19.6922 4.7016 24.3938 10.5013 24.3938Z" fill="#FFE5D3"/>
<path d="M10.6201 22.009L10.4869 21.782C8.45234 18.3155 3.04569 10.959 2.99108 10.8851L2.91309 10.7792L4.7551 8.95873L10.5859 13.0302C14.2572 8.26626 17.6822 4.99414 19.9163 3.08335C22.3602 0.99314 23.9511 0.0308759 23.9671 0.0216548L24.0033 0H27.1279L26.8294 0.265805C19.1534 7.10285 10.8333 21.6343 10.7505 21.7803L10.6201 22.009Z" fill="#F56200"/>
</svg>
