<svg width="100" height="100" viewBox="0 0 100 100" fill="none" xmlns="http://www.w3.org/2000/svg">
<path d="M50 96.875C40.729 96.875 31.6662 94.1259 23.9577 88.9752C16.2491 83.8245 10.241 76.5036 6.69317 67.9383C3.14531 59.373 2.21703 49.948 4.02571 40.8552C5.83439 31.7623 10.2988 23.41 16.8544 16.8544C23.41 10.2988 31.7623 5.83439 40.8552 4.02571C49.948 2.21703 59.373 3.14531 67.9383 6.69317C76.5036 10.241 83.8245 16.2491 88.9752 23.9577C94.1259 31.6662 96.875 40.729 96.875 50C96.861 62.4277 91.9178 74.3424 83.1301 83.1301C74.3424 91.9178 62.4277 96.861 50 96.875ZM50 6.25002C41.3471 6.25002 32.8885 8.81591 25.6938 13.6232C18.4992 18.4305 12.8916 25.2634 9.58029 33.2576C6.26896 41.2519 5.40256 50.0486 7.09067 58.5352C8.77877 67.0219 12.9456 74.8174 19.0641 80.9359C25.1826 87.0545 32.9782 91.2213 41.4648 92.9094C49.9515 94.5975 58.7482 93.7311 66.7424 90.4198C74.7367 87.1084 81.5695 81.5009 86.3768 74.3062C91.1841 67.1116 93.75 58.653 93.75 50C93.7368 38.4009 89.1232 27.2806 80.9213 19.0787C72.7195 10.8769 61.5992 6.26325 50 6.25002Z" fill="black"/>
<path d="M46.8746 12.6234C46.4602 12.6396 46.0564 12.4905 45.7519 12.2089C45.4475 11.9273 45.2674 11.5363 45.2512 11.1219C45.235 10.7075 45.3841 10.3036 45.6657 9.99917C45.9473 9.69472 46.3384 9.5146 46.7528 9.49844C47.8278 9.41875 48.9215 9.375 49.9996 9.375C50.414 9.375 50.8115 9.53962 51.1045 9.83265C51.3975 10.1257 51.5621 10.5231 51.5621 10.9375C51.5621 11.3519 51.3975 11.7493 51.1045 12.0424C50.8115 12.3354 50.414 12.5 49.9996 12.5C49.0028 12.5 47.9934 12.5391 46.9981 12.6188L46.8746 12.6234Z" fill="black"/>
<path d="M10.9375 51.5625C10.5231 51.5625 10.1257 51.3979 9.83269 51.1049C9.53967 50.8119 9.37505 50.4144 9.37505 50C9.36115 40.9178 12.3966 32.0938 17.9948 24.9421C23.5931 17.7904 31.4302 12.7251 40.25 10.5578C40.6526 10.4584 41.0782 10.5229 41.4332 10.7373C41.7882 10.9516 42.0436 11.2982 42.143 11.7008C42.2425 12.1034 42.1779 12.529 41.9636 12.884C41.7492 13.239 41.4026 13.4943 41 13.5938C32.8592 15.5948 25.6257 20.2704 20.4582 26.8714C15.2907 33.4725 12.4883 41.6169 12.5 50C12.5 50.4144 12.3354 50.8119 12.0424 51.1049C11.7494 51.3979 11.3519 51.5625 10.9375 51.5625Z" fill="black"/>
<path d="M35.1387 73.5938C34.4778 73.5904 33.8351 73.3776 33.3027 72.986C32.7634 72.6028 32.3617 72.0561 32.1571 71.4269C31.9526 70.7977 31.956 70.1194 32.1668 69.4922L37.1418 54.1797L24.1184 44.7172C23.5839 44.3296 23.1859 43.7826 22.9816 43.1548C22.7772 42.5269 22.777 41.8505 22.9809 41.2225C23.1848 40.5945 23.5823 40.0473 24.1165 39.6592C24.6507 39.2712 25.2941 39.0623 25.9543 39.0625H42.0481L47.0309 23.75C47.2364 23.1248 47.634 22.5805 48.1671 22.1945C48.7002 21.8086 49.3415 21.6008 49.9996 21.6008C50.6577 21.6008 51.2991 21.8086 51.8322 22.1945C52.3652 22.5805 52.7629 23.1248 52.9684 23.75L57.9465 39.0625H74.0403C74.7001 39.0628 75.3429 39.2718 75.8767 39.6598C76.4104 40.0477 76.8077 40.5947 77.0115 41.2223C77.2153 41.8499 77.2152 42.5259 77.0113 43.1534C76.8073 43.7809 76.41 44.3278 75.8762 44.7157L62.8528 54.1782L67.8278 69.4907C68.0318 70.1184 68.0318 70.7946 67.8279 71.4223C67.6239 72.05 67.2265 72.5971 66.6925 72.985C66.1585 73.3729 65.5154 73.5818 64.8553 73.5817C64.1953 73.5816 63.5523 73.3725 63.0184 72.9844L49.9996 63.5188L36.9762 72.9813C36.4446 73.376 35.8008 73.5906 35.1387 73.5938ZM49.9996 60.3922C50.6594 60.3929 51.3021 60.6024 51.8356 60.9907L64.8606 70.4532L59.8856 55.1407C59.6817 54.513 59.6819 53.8369 59.8859 53.2092C60.09 52.5816 60.4875 52.0347 61.0215 51.6469L74.0449 42.1875H57.9512C57.2918 42.1868 56.6496 41.9776 56.1163 41.5897C55.5831 41.2019 55.1862 40.6553 54.9824 40.0282L49.9996 24.7188V24.7L45.0324 40.0282C44.8281 40.6571 44.4296 41.2049 43.8941 41.593C43.3587 41.981 42.714 42.1892 42.0527 42.1875H25.959L38.9824 51.65C39.5164 52.0378 39.914 52.5847 40.118 53.2124C40.3221 53.84 40.3222 54.5161 40.1184 55.1438L35.1434 70.4563L48.1668 60.9938C48.699 60.605 49.3405 60.3945 49.9996 60.3922Z" fill="black"/>
</svg>
