<?xml version="1.0" encoding="UTF-8"?> <!-- Generator: Adobe Illustrator 20.0.0, SVG Export Plug-In . SVG Version: 6.00 Build 0) --> <svg xmlns="http://www.w3.org/2000/svg" xmlns:xlink="http://www.w3.org/1999/xlink" id="Layer_1" x="0px" y="0px" viewBox="0 0 1700.8 283.5" style="enable-background:new 0 0 1700.8 283.5;" xml:space="preserve"> <style type="text/css"> .st0{fill:#FFFFFF;} </style> <g> <path class="st0" d="M79.2,169.5l13.8-91.7h28.2V207h-19.2v-92.6l-14,92.6H68.9l-15.1-91.4V207H36V77.8h28.2L79.2,169.5z"></path> <path class="st0" d="M139.8,77.8h20.3V207h-20.3V77.8z"></path> <path class="st0" d="M178.5,77.8h20.3v110.7h33.4V207h-53.7V77.8z"></path> <path class="st0" d="M244.8,77.8h20.3v110.7h33.4V207h-53.7V77.8z"></path> <path class="st0" d="M311,77.8h20.3V207H311V77.8z"></path> <path class="st0" d="M348.1,108.8c0-20.7,10.9-32.5,30.8-32.5c19.9,0,30.8,11.8,30.8,32.5V176c0,20.7-10.9,32.5-30.8,32.5 c-19.9,0-30.8-11.8-30.8-32.5V108.8z M368.4,177.3c0,9.2,4.1,12.7,10.5,12.7s10.5-3.5,10.5-12.7v-69.8c0-9.2-4.1-12.7-10.5-12.7 s-10.5,3.5-10.5,12.7V177.3z"></path> <path class="st0" d="M444.6,113.4V207h-18.3V77.8h25.5l20.9,77.3V77.8h18.1V207h-20.9L444.6,113.4z"></path> <path class="st0" d="M541.4,77.8h32.1c20.3,0,30.3,11.3,30.3,31.9v65.3c0,20.7-10,31.9-30.3,31.9h-32.1V77.8z M561.7,96.3v92.3 h11.4c6.5,0,10.3-3.3,10.3-12.5v-67.2c0-9.2-3.9-12.5-10.3-12.5H561.7z"></path> <path class="st0" d="M618.7,108.8c0-20.7,10.9-32.5,30.8-32.5c19.9,0,30.8,11.8,30.8,32.5V176c0,20.7-10.9,32.5-30.8,32.5 c-19.9,0-30.8-11.8-30.8-32.5V108.8z M639,177.3c0,9.2,4.1,12.7,10.5,12.7s10.5-3.5,10.5-12.7v-69.8c0-9.2-4.1-12.7-10.5-12.7 S639,98.3,639,107.5V177.3z"></path> <path class="st0" d="M697.1,77.8h20.3v110.7h33.4V207h-53.7V77.8z"></path> <path class="st0" d="M763.4,77.8h20.3v110.7h33.4V207h-53.7V77.8z"></path> <path class="st0" d="M895.3,207h-20.5l-3.5-23.4h-24.9l-3.5,23.4h-18.6l20.7-129.2h29.7L895.3,207z M849,166h19.6l-9.8-65.3 L849,166z"></path> <path class="st0" d="M950.9,207c-1.1-3.3-1.8-5.4-1.8-15.9v-20.3c0-12-4.1-16.4-13.3-16.4h-7V207h-20.3V77.8h30.6 c21,0,30.1,9.8,30.1,29.7v10.2c0,13.3-4.2,22-13.3,26.2c10.2,4.2,13.5,14,13.5,27.5v19.9c0,6.3,0.2,10.9,2.2,15.7H950.9z M928.7,96.3v39.7h7.9c7.6,0,12.2-3.3,12.2-13.7v-12.7c0-9.2-3.1-13.3-10.3-13.3H928.7z"></path> <path class="st0" d="M1079.3,107.5v4.6c0,13.3-4.1,21.8-13.1,26c10.9,4.2,15.1,14,15.1,27.7v10.5c0,19.9-10.5,30.6-30.8,30.6h-31.9 V77.8h30.6C1070.3,77.8,1079.3,87.6,1079.3,107.5z M1038.9,96.3v34.1h7.9c7.6,0,12.2-3.3,12.2-13.7v-7.2c0-9.2-3.1-13.3-10.3-13.3 H1038.9z M1038.9,148.9v39.7h11.6c6.8,0,10.5-3.1,10.5-12.7v-11.3c0-12-3.9-15.7-13.1-15.7H1038.9z"></path> <path class="st0" d="M1139.7,207c-1.1-3.3-1.8-5.4-1.8-15.9v-20.3c0-12-4.1-16.4-13.3-16.4h-7V207h-20.3V77.8h30.6 c21,0,30.1,9.8,30.1,29.7v10.2c0,13.3-4.2,22-13.3,26.2c10.2,4.2,13.5,14,13.5,27.5v19.9c0,6.3,0.2,10.9,2.2,15.7H1139.7z M1117.5,96.3v39.7h7.9c7.6,0,12.2-3.3,12.2-13.7v-12.7c0-9.2-3.1-13.3-10.3-13.3H1117.5z"></path> <path class="st0" d="M1240.8,207h-20.5l-3.5-23.4h-24.9l-3.5,23.4h-18.6l20.7-129.2h29.7L1240.8,207z M1194.5,166h19.6l-9.8-65.3 L1194.5,166z"></path> <path class="st0" d="M1272,113.4V207h-18.3V77.8h25.5l20.9,77.3V77.8h18.1V207h-20.9L1272,113.4z"></path> <path class="st0" d="M1336.4,77.8h32.1c20.3,0,30.3,11.3,30.3,31.9v65.3c0,20.7-10,31.9-30.3,31.9h-32.1V77.8z M1356.7,96.3v92.3 h11.4c6.5,0,10.3-3.3,10.3-12.5v-67.2c0-9.2-3.9-12.5-10.3-12.5H1356.7z"></path> <path class="st0" d="M1435.7,132.3h27.9v18.5h-27.9v37.8h35.1V207h-55.4V77.8h55.4v18.5h-35.1V132.3z"></path> <path class="st0" d="M1529.5,207c-1.1-3.3-1.8-5.4-1.8-15.9v-20.3c0-12-4.1-16.4-13.3-16.4h-7V207H1487V77.8h30.6 c21,0,30.1,9.8,30.1,29.7v10.2c0,13.3-4.2,22-13.3,26.2c10.2,4.2,13.5,14,13.5,27.5v19.9c0,6.3,0.2,10.9,2.2,15.7H1529.5z M1507.3,96.3v39.7h7.9c7.6,0,12.2-3.3,12.2-13.7v-12.7c0-9.2-3.1-13.3-10.3-13.3H1507.3z"></path> <path class="st0" d="M1592.2,76.3c19.7,0,29.9,11.8,29.9,32.5v4.1h-19.2v-5.4c0-9.2-3.7-12.7-10.2-12.7s-10.2,3.5-10.2,12.7 c0,26.6,39.7,31.6,39.7,68.5c0,20.7-10.3,32.5-30.3,32.5s-30.3-11.8-30.3-32.5v-7.9h19.2v9.2c0,9.2,4.1,12.5,10.5,12.5 c6.5,0,10.5-3.3,10.5-12.5c0-26.6-39.7-31.6-39.7-68.5C1562.3,88.1,1572.5,76.3,1592.2,76.3z"></path> </g> <g> <path class="st0" d="M1630.8,80.1h17.4v5.1h-5.9v30.6h-5.6V85.2h-5.9V80.1z"></path> <path class="st0" d="M1665.5,105.4l3.8-25.4h7.8v35.7h-5.3V90.2l-3.9,25.6h-5.3l-4.2-25.3v25.3h-4.9V80.1h7.8L1665.5,105.4z"></path> </g> </svg> 