<svg width="140" height="29" viewBox="0 0 140 29" fill="none" xmlns="http://www.w3.org/2000/svg">
<path d="M13.9994 21.8677L9.15774 24.7844C8.94385 24.9205 8.72024 24.9788 8.48691 24.9594C8.25357 24.9399 8.04941 24.8621 7.87441 24.726C7.69941 24.5899 7.5633 24.4196 7.46607 24.215C7.36885 24.0105 7.34941 23.7822 7.40774 23.5302L8.69107 18.0177L4.40357 14.3135C4.20913 14.1385 4.0878 13.939 4.03957 13.715C3.99135 13.491 4.00574 13.2725 4.08274 13.0594C4.16052 12.8455 4.27718 12.6705 4.43274 12.5344C4.5883 12.3983 4.80218 12.3108 5.07441 12.2719L10.7327 11.776L12.9202 6.58437C13.0175 6.35104 13.1684 6.17604 13.3729 6.05937C13.5775 5.9427 13.7863 5.88437 13.9994 5.88437C14.2133 5.88437 14.4221 5.9427 14.6259 6.05937C14.8297 6.17604 14.9806 6.35104 15.0786 6.58437L17.2661 11.776L22.9244 12.2719C23.1966 12.3108 23.4105 12.3983 23.5661 12.5344C23.7216 12.6705 23.8383 12.8455 23.9161 13.0594C23.9939 13.2733 24.0086 13.4922 23.9604 13.7162C23.9122 13.9402 23.7905 14.1393 23.5952 14.3135L19.3077 18.0177L20.5911 23.5302C20.6494 23.783 20.63 24.0116 20.5327 24.2162C20.4355 24.4208 20.2994 24.5907 20.1244 24.726C19.9494 24.8621 19.7452 24.9399 19.5119 24.9594C19.2786 24.9788 19.055 24.9205 18.8411 24.7844L13.9994 21.8677Z" fill="#FFB100"/>
<path d="M41.9994 21.8677L37.1577 24.7844C36.9439 24.9205 36.7202 24.9788 36.4869 24.9594C36.2536 24.9399 36.0494 24.8621 35.8744 24.726C35.6994 24.5899 35.5633 24.4196 35.4661 24.215C35.3689 24.0105 35.3494 23.7822 35.4077 23.5302L36.6911 18.0177L32.4036 14.3135C32.2091 14.1385 32.0878 13.939 32.0396 13.715C31.9914 13.491 32.0057 13.2725 32.0827 13.0594C32.1605 12.8455 32.2772 12.6705 32.4327 12.5344C32.5883 12.3983 32.8022 12.3108 33.0744 12.2719L38.7327 11.776L40.9202 6.58437C41.0175 6.35104 41.1684 6.17604 41.3729 6.05937C41.5775 5.9427 41.7863 5.88437 41.9994 5.88437C42.2133 5.88437 42.4221 5.9427 42.6259 6.05937C42.8297 6.17604 42.9806 6.35104 43.0786 6.58437L45.2661 11.776L50.9244 12.2719C51.1966 12.3108 51.4105 12.3983 51.5661 12.5344C51.7216 12.6705 51.8383 12.8455 51.9161 13.0594C51.9939 13.2733 52.0086 13.4922 51.9604 13.7162C51.9122 13.9402 51.7905 14.1393 51.5952 14.3135L47.3077 18.0177L48.5911 23.5302C48.6494 23.783 48.63 24.0116 48.5327 24.2162C48.4355 24.4208 48.2994 24.5907 48.1244 24.726C47.9494 24.8621 47.7452 24.9399 47.5119 24.9594C47.2786 24.9788 47.055 24.9205 46.8411 24.7844L41.9994 21.8677Z" fill="#FFB100"/>
<path d="M69.9994 21.8677L65.1577 24.7844C64.9439 24.9205 64.7202 24.9788 64.4869 24.9594C64.2536 24.9399 64.0494 24.8621 63.8744 24.726C63.6994 24.5899 63.5633 24.4196 63.4661 24.215C63.3689 24.0105 63.3494 23.7822 63.4077 23.5302L64.6911 18.0177L60.4036 14.3135C60.2091 14.1385 60.0878 13.939 60.0396 13.715C59.9914 13.491 60.0057 13.2725 60.0827 13.0594C60.1605 12.8455 60.2772 12.6705 60.4327 12.5344C60.5883 12.3983 60.8022 12.3108 61.0744 12.2719L66.7327 11.776L68.9202 6.58437C69.0175 6.35104 69.1684 6.17604 69.3729 6.05937C69.5775 5.9427 69.7863 5.88437 69.9994 5.88437C70.2133 5.88437 70.4221 5.9427 70.6259 6.05937C70.8297 6.17604 70.9806 6.35104 71.0786 6.58437L73.2661 11.776L78.9244 12.2719C79.1966 12.3108 79.4105 12.3983 79.5661 12.5344C79.7216 12.6705 79.8383 12.8455 79.9161 13.0594C79.9939 13.2733 80.0086 13.4922 79.9604 13.7162C79.9122 13.9402 79.7905 14.1393 79.5952 14.3135L75.3077 18.0177L76.5911 23.5302C76.6494 23.783 76.63 24.0116 76.5327 24.2162C76.4355 24.4208 76.2994 24.5907 76.1244 24.726C75.9494 24.8621 75.7452 24.9399 75.5119 24.9594C75.2786 24.9788 75.055 24.9205 74.8411 24.7844L69.9994 21.8677Z" fill="#FFB100"/>
<path d="M97.9994 21.8677L93.1577 24.7844C92.9439 24.9205 92.7202 24.9788 92.4869 24.9594C92.2536 24.9399 92.0494 24.8621 91.8744 24.726C91.6994 24.5899 91.5633 24.4196 91.4661 24.215C91.3689 24.0105 91.3494 23.7822 91.4077 23.5302L92.6911 18.0177L88.4036 14.3135C88.2091 14.1385 88.0878 13.939 88.0396 13.715C87.9914 13.491 88.0057 13.2725 88.0827 13.0594C88.1605 12.8455 88.2772 12.6705 88.4327 12.5344C88.5883 12.3983 88.8022 12.3108 89.0744 12.2719L94.7327 11.776L96.9202 6.58437C97.0175 6.35104 97.1684 6.17604 97.3729 6.05937C97.5775 5.9427 97.7863 5.88437 97.9994 5.88437C98.2133 5.88437 98.4221 5.9427 98.6259 6.05937C98.8297 6.17604 98.9806 6.35104 99.0786 6.58437L101.266 11.776L106.924 12.2719C107.197 12.3108 107.411 12.3983 107.566 12.5344C107.722 12.6705 107.838 12.8455 107.916 13.0594C107.994 13.2733 108.009 13.4922 107.96 13.7162C107.912 13.9402 107.79 14.1393 107.595 14.3135L103.308 18.0177L104.591 23.5302C104.649 23.783 104.63 24.0116 104.533 24.2162C104.436 24.4208 104.299 24.5907 104.124 24.726C103.949 24.8621 103.745 24.9399 103.512 24.9594C103.279 24.9788 103.055 24.9205 102.841 24.7844L97.9994 21.8677Z" fill="#FFB100"/>
<path d="M125.999 21.8677L121.158 24.7844C120.944 24.9205 120.72 24.9788 120.487 24.9594C120.254 24.9399 120.049 24.8621 119.874 24.726C119.699 24.5899 119.563 24.4196 119.466 24.215C119.369 24.0105 119.349 23.7822 119.408 23.5302L120.691 18.0177L116.404 14.3135C116.209 14.1385 116.088 13.939 116.04 13.715C115.991 13.491 116.006 13.2725 116.083 13.0594C116.161 12.8455 116.277 12.6705 116.433 12.5344C116.588 12.3983 116.802 12.3108 117.074 12.2719L122.733 11.776L124.92 6.58437C125.017 6.35104 125.168 6.17604 125.373 6.05937C125.577 5.9427 125.786 5.88437 125.999 5.88437C126.213 5.88437 126.422 5.9427 126.626 6.05937C126.83 6.17604 126.981 6.35104 127.079 6.58437L129.266 11.776L134.924 12.2719C135.197 12.3108 135.411 12.3983 135.566 12.5344C135.722 12.6705 135.838 12.8455 135.916 13.0594C135.994 13.2733 136.009 13.4922 135.96 13.7162C135.912 13.9402 135.79 14.1393 135.595 14.3135L131.308 18.0177L132.591 23.5302C132.649 23.783 132.63 24.0116 132.533 24.2162C132.436 24.4208 132.299 24.5907 132.124 24.726C131.949 24.8621 131.745 24.9399 131.512 24.9594C131.279 24.9788 131.055 24.9205 130.841 24.7844L125.999 21.8677Z" fill="#FFB100"/>
</svg>
