<svg width="100" height="100" viewBox="0 0 100 100" fill="none" xmlns="http://www.w3.org/2000/svg">
<g clip-path="url(#clip0_311_185)">
<path d="M18.75 59.375C17.5139 59.375 16.3055 59.7416 15.2777 60.4283C14.2499 61.1151 13.4488 62.0912 12.9758 63.2332C12.5027 64.3753 12.3789 65.6319 12.6201 66.8443C12.8613 68.0567 13.4565 69.1703 14.3306 70.0444C15.2047 70.9185 16.3183 71.5138 17.5307 71.7549C18.7431 71.9961 19.9997 71.8723 21.1418 71.3992C22.2838 70.9262 23.2599 70.1251 23.9467 69.0973C24.6334 68.0695 25 66.8611 25 65.625C25 63.9674 24.3415 62.3777 23.1694 61.2056C21.9973 60.0335 20.4076 59.375 18.75 59.375ZM18.75 68.75C18.1319 68.75 17.5278 68.5667 17.0138 68.2233C16.4999 67.88 16.0994 67.3919 15.8629 66.8209C15.6264 66.2499 15.5645 65.6215 15.685 65.0153C15.8056 64.4091 16.1033 63.8523 16.5403 63.4153C16.9773 62.9782 17.5342 62.6806 18.1403 62.56C18.7465 62.4395 19.3749 62.5014 19.9459 62.7379C20.5169 62.9744 21.005 63.3749 21.3483 63.8888C21.6917 64.4027 21.875 65.0069 21.875 65.625C21.875 66.4538 21.5458 67.2487 20.9597 67.8347C20.3737 68.4208 19.5788 68.75 18.75 68.75Z" fill="black"/>
<path d="M75 65.625C75 66.8611 75.3666 68.0695 76.0533 69.0973C76.7401 70.1251 77.7162 70.9262 78.8582 71.3992C80.0003 71.8723 81.2569 71.9961 82.4693 71.7549C83.6817 71.5138 84.7953 70.9185 85.6694 70.0444C86.5435 69.1703 87.1388 68.0567 87.3799 66.8443C87.6211 65.6319 87.4973 64.3753 87.0242 63.2332C86.5512 62.0912 85.7501 61.1151 84.7223 60.4283C83.6945 59.7416 82.4861 59.375 81.25 59.375C79.5924 59.375 78.0027 60.0335 76.8306 61.2056C75.6585 62.3777 75 63.9674 75 65.625ZM84.375 65.625C84.375 66.2431 84.1917 66.8473 83.8483 67.3612C83.505 67.8751 83.0169 68.2756 82.4459 68.5121C81.8749 68.7486 81.2465 68.8105 80.6403 68.69C80.0341 68.5694 79.4773 68.2718 79.0403 67.8347C78.6032 67.3977 78.3056 66.8409 78.185 66.2347C78.0645 65.6285 78.1264 65.0001 78.3629 64.4291C78.5994 63.8581 78.9999 63.37 79.5138 63.0267C80.0277 62.6833 80.6319 62.5 81.25 62.5C82.0788 62.5 82.8737 62.8292 83.4597 63.4153C84.0458 64.0013 84.375 64.7962 84.375 65.625Z" fill="black"/>
<path d="M57.8125 6.25H42.1875C41.7731 6.25 41.3757 6.41462 41.0826 6.70765C40.7896 7.00067 40.625 7.3981 40.625 7.8125V14.0625C40.625 14.4769 40.7896 14.8743 41.0826 15.1674C41.3757 15.4604 41.7731 15.625 42.1875 15.625H57.8125C58.2269 15.625 58.6243 15.4604 58.9174 15.1674C59.2104 14.8743 59.375 14.4769 59.375 14.0625V7.8125C59.375 7.3981 59.2104 7.00067 58.9174 6.70765C58.6243 6.41462 58.2269 6.25 57.8125 6.25ZM56.25 12.5H43.75V9.375H56.25V12.5Z" fill="black"/>
<path d="M96.875 25.2813V23.4375C96.875 22.1943 96.3811 21.002 95.5021 20.1229C94.623 19.2439 93.4307 18.75 92.1875 18.75H87.3906C86.2656 6.98437 72.5 0 50 0C27.5 0 13.7344 6.98437 12.6094 18.75H7.8125C6.5693 18.75 5.37701 19.2439 4.49794 20.1229C3.61886 21.002 3.125 22.1943 3.125 23.4375V25.2813C2.2132 25.6036 1.42343 26.2001 0.863966 26.989C0.304498 27.7778 0.00271799 28.7204 0 29.6875L0 35.9375C0 37.1807 0.49386 38.373 1.37294 39.2521C2.25201 40.1311 3.4443 40.625 4.6875 40.625C5.9307 40.625 7.12299 40.1311 8.00206 39.2521C8.88114 38.373 9.375 37.1807 9.375 35.9375V29.6875C9.37228 28.7204 9.0705 27.7778 8.51103 26.989C7.95157 26.2001 7.1618 25.6036 6.25 25.2813V23.4375C6.25 23.0231 6.41462 22.6257 6.70765 22.3326C7.00067 22.0396 7.3981 21.875 7.8125 21.875H12.5V49.4375C5 56.6562 6.25 64.1719 6.25 75C5.8356 75 5.43817 75.1646 5.14515 75.4576C4.85212 75.7507 4.6875 76.1481 4.6875 76.5625V85.9375C4.6875 86.3519 4.85212 86.7493 5.14515 87.0424C5.43817 87.3354 5.8356 87.5 6.25 87.5H7.8125V95.3125C7.8125 96.5557 8.30636 97.748 9.18544 98.6271C10.0645 99.5061 11.2568 100 12.5 100H18.75C19.9932 100 21.1855 99.5061 22.0646 98.6271C22.9436 97.748 23.4375 96.5557 23.4375 95.3125V87.5H76.5625V95.3125C76.5625 96.5557 77.0564 97.748 77.9354 98.6271C78.8145 99.5061 80.0068 100 81.25 100H87.5C88.7432 100 89.9355 99.5061 90.8146 98.6271C91.6936 97.748 92.1875 96.5557 92.1875 95.3125V87.5H93.75C94.1644 87.5 94.5618 87.3354 94.8549 87.0424C95.1479 86.7493 95.3125 86.3519 95.3125 85.9375V76.5625C95.3125 76.1481 95.1479 75.7507 94.8549 75.4576C94.5618 75.1646 94.1644 75 93.75 75C93.75 64.1875 95 56.6562 87.5 49.4375V21.875H92.1875C92.6019 21.875 92.9993 22.0396 93.2924 22.3326C93.5854 22.6257 93.75 23.0231 93.75 23.4375V25.2813C92.8382 25.6036 92.0484 26.2001 91.489 26.989C90.9295 27.7778 90.6277 28.7204 90.625 29.6875V35.9375C90.625 37.1807 91.1189 38.373 91.9979 39.2521C92.877 40.1311 94.0693 40.625 95.3125 40.625C96.5557 40.625 97.748 40.1311 98.6271 39.2521C99.5061 38.373 100 37.1807 100 35.9375V29.6875C99.9973 28.7204 99.6955 27.7778 99.136 26.989C98.5766 26.2001 97.7868 25.6036 96.875 25.2813ZM6.25 35.9375C6.25 36.3519 6.08538 36.7493 5.79235 37.0424C5.49933 37.3354 5.1019 37.5 4.6875 37.5C4.2731 37.5 3.87567 37.3354 3.58265 37.0424C3.28962 36.7493 3.125 36.3519 3.125 35.9375V29.6875C3.125 29.2731 3.28962 28.8757 3.58265 28.5826C3.87567 28.2896 4.2731 28.125 4.6875 28.125C5.1019 28.125 5.49933 28.2896 5.79235 28.5826C6.08538 28.8757 6.25 29.2731 6.25 29.6875V35.9375ZM20.3125 95.3125C20.3125 95.7269 20.1479 96.1243 19.8549 96.4174C19.5618 96.7104 19.1644 96.875 18.75 96.875H12.5C12.0856 96.875 11.6882 96.7104 11.3951 96.4174C11.1021 96.1243 10.9375 95.7269 10.9375 95.3125V87.5H20.3125V95.3125ZM89.0625 95.3125C89.0625 95.7269 88.8979 96.1243 88.6049 96.4174C88.3118 96.7104 87.9144 96.875 87.5 96.875H81.25C80.8356 96.875 80.4382 96.7104 80.1451 96.4174C79.8521 96.1243 79.6875 95.7269 79.6875 95.3125V87.5H89.0625V95.3125ZM92.1875 84.375H7.8125V78.125H92.1875V84.375ZM57.8125 59.375V62.5H42.1875V59.375H57.8125ZM68.75 59.375V62.5H60.9375V59.375H68.75ZM42.1875 75V71.875H57.8125V75H42.1875ZM31.25 65.625H39.0625V68.75H31.25V65.625ZM42.1875 65.625H57.8125V68.75H42.1875V65.625ZM68.75 68.75H60.9375V65.625H68.75V68.75ZM60.9375 71.875H68.75V75H60.9375V71.875ZM39.0625 62.5H31.25V59.375H39.0625V62.5ZM31.25 71.875H39.0625V75H31.25V71.875ZM90.625 64.0625V75H71.875V57.8125C71.875 57.3981 71.7104 57.0007 71.4174 56.7076C71.1243 56.4146 70.7269 56.25 70.3125 56.25H29.6875C29.2731 56.25 28.8757 56.4146 28.5826 56.7076C28.2896 57.0007 28.125 57.3981 28.125 57.8125V75H9.375V64.0625C9.375 59.5041 11.1858 55.1324 14.4091 51.9091C17.6324 48.6858 22.0041 46.875 26.5625 46.875H73.4375C77.9959 46.875 82.3676 48.6858 85.5909 51.9091C88.8142 55.1324 90.625 59.5041 90.625 64.0625ZM21.875 43.75V21.875H48.4375V43.75H21.875ZM78.125 21.875V43.75H51.5625V21.875H78.125ZM81.25 45.3125V20.3125C81.25 19.8981 81.0854 19.5007 80.7924 19.2076C80.4993 18.9146 80.1019 18.75 79.6875 18.75H20.3125C19.8981 18.75 19.5007 18.9146 19.2076 19.2076C18.9146 19.5007 18.75 19.8981 18.75 20.3125V45.3125C17.6724 45.7939 16.6283 46.3472 15.625 46.9687V20.3125C15.625 7.64063 33.375 3.125 50 3.125C66.625 3.125 84.375 7.64063 84.375 20.3125V46.9687C83.3793 46.3339 82.3343 45.7801 81.25 45.3125ZM96.875 35.9375C96.875 36.3519 96.7104 36.7493 96.4174 37.0424C96.1243 37.3354 95.7269 37.5 95.3125 37.5C94.8981 37.5 94.5007 37.3354 94.2076 37.0424C93.9146 36.7493 93.75 36.3519 93.75 35.9375V29.6875C93.75 29.2731 93.9146 28.8757 94.2076 28.5826C94.5007 28.2896 94.8981 28.125 95.3125 28.125C95.7269 28.125 96.1243 28.2896 96.4174 28.5826C96.7104 28.8757 96.875 29.2731 96.875 29.6875V35.9375Z" fill="black"/>
<path d="M67.1875 14.0625C68.9134 14.0625 70.3125 12.6634 70.3125 10.9375C70.3125 9.21161 68.9134 7.8125 67.1875 7.8125C65.4616 7.8125 64.0625 9.21161 64.0625 10.9375C64.0625 12.6634 65.4616 14.0625 67.1875 14.0625Z" fill="black"/>
<path d="M32.8125 14.0625C34.5384 14.0625 35.9375 12.6634 35.9375 10.9375C35.9375 9.21161 34.5384 7.8125 32.8125 7.8125C31.0866 7.8125 29.6875 9.21161 29.6875 10.9375C29.6875 12.6634 31.0866 14.0625 32.8125 14.0625Z" fill="black"/>
</g>
<defs>
<clipPath id="clip0_311_185">
<rect width="100" height="100" fill="white"/>
</clipPath>
</defs>
</svg>
