<svg width="100" height="100" viewBox="0 0 100 100" fill="none" xmlns="http://www.w3.org/2000/svg">
<g clip-path="url(#clip0_311_2)">
<path d="M1.13281 93.3547L2.42911 96.2726L48.9454 76.9848L57.0492 77.9575L59.9663 86.8717L56.0766 90.5999C54.6181 91.8962 54.1322 94.0029 54.9426 95.9481L56.5633 100L83.4674 89.4651L82.0089 85.5754C81.3607 83.6301 79.5777 82.4961 77.4711 82.4961H72.1221L69.205 75.5263L76.3362 71.9611C78.6051 70.8262 79.5777 68.2329 78.7674 65.9639L69.5295 41.1665C68.5568 38.5731 65.8012 37.4383 63.2078 38.2487C63.2078 38.2487 63.0464 38.2487 63.0464 38.4109L56.2389 41.328L55.2662 38.8968L58.9945 34.5212C61.5871 31.6034 63.2078 28.0382 63.6945 24.1485L68.3946 18.4758C71.4739 14.9098 70.8258 9.56159 67.2598 6.4815C66.6116 5.99558 65.9635 5.50967 65.3153 5.1852C63.5323 4.37482 61.7493 4.21258 59.8049 4.69929L59.3182 3.23997C58.5078 0.647372 55.5907 -0.649716 53.1596 0.322902L18.9612 12.6409C16.3679 13.6135 15.0716 16.3683 16.0442 18.7995V18.9617L16.8546 21.0684C12.6404 23.0136 10.6952 27.8759 12.1537 32.0901C13.2886 35.3316 16.2056 37.6005 19.6094 38.0864L27.2273 38.8968C30.3066 41.1665 34.0341 42.6251 37.7623 42.9487L43.1105 43.4354L44.0831 45.8666C42.9483 46.5147 42.1379 47.6496 41.8142 49.1081L40.6794 54.6186L1.13281 70.664L2.26767 73.7433L24.9584 64.6676L30.4688 81.199L1.13281 93.3547ZM78.7674 86.548L79.0918 87.5198L58.3455 95.7859L57.8596 94.8133C57.6974 94.1651 57.8596 93.517 58.1841 93.0311L63.6945 87.8443L70.6635 85.5754H77.1466C77.957 85.5754 78.4437 85.899 78.7674 86.548ZM68.5568 82.6575L62.7219 84.6028L60.6153 78.4442C61.5871 78.6056 62.3975 78.4442 63.2078 77.9575L65.9635 76.6612L68.5568 82.6575ZM64.1805 40.8421C64.9908 40.5176 65.9635 40.8421 66.2879 41.6524L67.5842 45.0562L59.6426 47.6496L60.6153 50.7289L68.5568 48.1355L70.5013 53.3223L62.8842 55.9149L63.8568 58.995L71.6361 56.4016L73.5814 61.5876L66.1257 64.0187L67.0983 67.0988L74.7154 64.5054L75.5258 66.6121C75.8503 67.4225 75.5258 68.2329 74.7154 68.5573L61.9115 74.8782C61.5871 75.0404 61.2634 75.0404 60.9389 75.0404L49.918 73.7433L43.9209 55.7534L45.0557 49.7563C45.218 49.2704 45.5417 48.7837 46.0284 48.6214L64.1805 40.8421ZM64.0182 8.10226C66.6116 9.23712 67.9087 12.3164 66.7738 15.072C66.6116 15.5579 66.2879 15.8824 65.9635 16.3683L64.0182 18.7995C63.8568 17.1787 63.5323 15.7202 63.0464 14.0994L60.9389 7.77859C62.0738 7.61635 63.0464 7.77859 64.0182 8.10226ZM15.3952 31.2797C14.4234 28.5241 15.5575 25.607 18.1509 24.3099L20.4198 29.8212C21.2302 31.7656 22.365 33.7108 23.6613 35.3316L20.2575 35.0071C17.9886 34.8449 16.0442 33.3864 15.3952 31.2797ZM38.4104 39.8694C31.7651 39.2213 25.9302 35.0071 23.4991 28.6863L19.2857 17.9891C18.9612 17.1787 19.2857 16.2061 20.0961 15.8824L54.2936 3.56444C54.7803 3.4022 55.104 3.4022 55.5907 3.56444C55.9144 3.72667 56.2389 4.05035 56.4011 4.53705L59.9663 15.2343C61.9115 21.2306 60.6153 27.7137 56.5633 32.4138L51.5388 38.2487L52.9973 42.1384L47.1624 44.5695L45.5417 40.5176L38.4104 39.8694ZM28.0377 63.3706L31.7651 61.912L35.8171 74.23L38.8964 73.2574L34.683 60.6157L41.1661 58.0223L46.6765 74.3922L33.5481 79.9027L28.0377 63.3706Z" fill="black"/>
<path d="M81.1995 28.361V29.9817H84.4411V28.361C84.4411 23.8231 88.0071 20.2571 92.5449 20.2571V17.0156C88.0071 17.0156 84.4411 13.4504 84.4411 8.91178V7.29102H81.1995V8.91178C81.1995 13.4504 77.6343 17.0156 73.0957 17.0156V20.2571C77.6343 20.2571 81.1995 23.8231 81.1995 28.361ZM82.8203 14.7467C83.7929 16.3675 85.0892 17.6646 86.71 18.6364C85.0892 19.609 83.7929 20.9061 82.8203 22.5269C81.8477 20.9061 80.5514 19.609 78.9306 18.6364C80.5514 17.6646 81.8477 16.3675 82.8203 14.7467Z" fill="black"/>
<path d="M9.88508 60.777V62.3978H13.1266V60.777C13.1266 56.2392 16.6926 52.6732 21.2304 52.6732V49.4316C16.6926 49.4316 13.1266 45.8664 13.1266 41.3278V39.707H9.88508V41.3278C9.88508 45.8664 6.31987 49.4316 1.78125 49.4316V52.6732C6.31987 52.6732 9.88508 56.2392 9.88508 60.777ZM11.5058 47.1627C12.4785 48.7835 13.7748 50.0806 15.3955 51.0524C13.7748 52.025 12.4785 53.3221 11.5058 54.9429C10.5332 53.3221 9.23693 52.025 7.61617 51.0524C9.23693 50.0806 10.5332 48.7835 11.5058 47.1627Z" fill="black"/>
<path d="M90.9235 41.3278V39.707H87.682V41.3278C87.682 45.8664 84.1167 49.4316 79.5781 49.4316V52.6732C84.1167 52.6732 87.682 56.2392 87.682 60.777V62.3978H90.9235V60.777C90.9235 56.2392 94.4895 52.6732 99.0273 52.6732V49.4316C94.4895 49.4316 90.9235 45.8664 90.9235 41.3278ZM89.3027 54.9429C88.3301 53.3221 87.0338 52.025 85.413 51.0524C87.0338 50.0806 88.3301 48.7835 89.3027 47.1627C90.2753 48.7835 91.5716 50.0806 93.1924 51.0524C91.5716 52.025 90.2753 53.3221 89.3027 54.9429Z" fill="black"/>
<path d="M49.2698 28.8478L51.5387 31.1168C60.4529 22.2025 52.1868 8.58827 51.7009 8.10156L48.9453 9.88456C49.1075 9.88456 56.401 21.7166 49.2698 28.8478Z" fill="black"/>
</g>
<defs>
<clipPath id="clip0_311_2">
<rect width="100" height="100" fill="white"/>
</clipPath>
</defs>
</svg>
